<svg width="354" height="486" xmlns="http://www.w3.org/2000/svg" xmlns:xlink="http://www.w3.org/1999/xlink" overflow="hidden"><defs><clipPath id="clip0"><rect x="445" y="117" width="354" height="486"/></clipPath></defs><g clip-path="url(#clip0)" transform="translate(-445 -117)"><path d="M234.396 449.724 234.396 433.447C234.396 433.447 285.322 437.516 315.435 386.591 321.132 374.267 325.899 369.965 327.062 332.991 328.224 296.018 332.061 287.414 336.828 277.415 336.828 277.415 326.48 269.742 306.017 264.626 285.554 259.51 256.487 261.022 231.024 276.834L230.211 275.206C230.211 275.206 274.276 256.022 286.6 219.281 286.6 219.281 294.507 223.932 300.204 224.165 300.204 224.165 309.97 175.332 277.648 120.57 277.648 120.57 308.459 90.9215 286.6 19.4167 286.6 19.4167 248.697 32.6713 221.374 56.1574 221.374 56.1574 209.282 49.0651 194.051 44.9957 194.051 44.9957 206.376 23.8349 197.539 14.5335 197.539 14.5335 186.959 30.4622 160.101 28.0206 160.101 28.0206 162.194 17.0914 156.38 10.6967 156.38 10.6967 151.497 20.1144 139.987 27.323 128.476 34.5316 116.849 39.7636 111.268 53.0182 111.268 53.0182 92.433 33.3689 49.6464 19.1842 49.6464 19.1842 26.1603 83.5967 58.2502 119.989 58.2502 119.989 30.4622 157.311 35.3455 224.862 35.3455 224.862 42.7866 222.886 48.1349 220.444 48.1349 220.444 61.2732 253.464 106.036 275.788 106.036 275.788 82.6665 313.226 76.9694 353.106 74.2952 374.615 96.1536 376.824 102.665 368.453L102.665 449.957C50.2278 451.934 14.0684 456.119 14.0684 461.002 14.0684 467.746 84.5268 473.211 171.379 473.211 258.231 473.211 328.689 467.746 328.689 461.002 328.689 455.887 289.856 451.585 234.396 449.724ZM234.396 368.686C246.023 380.778 261.254 369.383 259.743 357.175 256.603 332.41 247.651 308.924 242.884 297.878 256.952 284.856 274.276 288.345 274.276 288.345 261.022 300.901 261.254 313.691 261.254 313.691L261.138 313.691 261.254 314.04 261.254 313.807C279.043 308.226 287.879 310.784 287.879 310.784 276.718 329.271 285.438 344.851 285.438 344.851 295.088 334.619 304.273 326.597 304.273 326.597 304.622 328.573 305.087 330.782 305.436 333.108 306.715 341.828 307.645 352.408 308.11 358.919 289.972 420.774 234.396 417.867 234.396 417.867L234.396 368.686ZM51.8555 185.564C56.6225 154.055 72.4349 122.779 73.5976 120.57L73.7139 120.454C49.0651 79.8761 61.5057 43.9493 61.5057 43.9493 95.456 53.8321 107.432 74.8766 107.432 74.8766 118.477 66.0402 122.779 64.8775 122.779 64.8775 128.36 44.2981 148.59 41.2751 148.59 41.2751L147.311 51.8555C156.38 38.8335 178.239 39.8799 178.239 39.8799 176.611 41.0426 162.891 51.1579 162.891 51.1579 204.399 51.623 224.746 68.7144 228.234 71.8536 228.35 71.9699 228.583 72.2024 228.699 72.3187 248.93 50.6928 274.741 42.7866 274.741 42.7866 287.647 87.5498 261.603 115.803 261.603 115.803 276.601 148.125 282.647 170.681 285.089 184.633 287.182 196.842 286.6 202.539 286.6 202.539 286.6 202.539 270.904 198.004 255.789 178.239 240.675 158.357 212.422 131.848 168.356 131.848 124.407 131.848 105.571 149.288 83.5967 174.634 61.622 199.981 50.4603 202.655 50.4603 202.655 50.4603 197.074 51.0416 191.261 51.8555 185.564ZM181.378 154.52C204.632 184.75 233.699 176.146 233.699 176.146 234.047 179.169 234.28 182.076 234.28 185.215 234.28 221.839 204.632 251.488 168.007 251.488 131.383 251.488 101.734 221.839 101.734 185.215 101.734 181.843 101.967 178.588 102.432 175.448 117.314 159.868 129.057 154.055 135.685 151.846 139.638 150.451 141.847 150.451 141.847 150.451 148.59 164.868 159.403 171.844 169.751 175.1 184.75 179.75 198.934 176.495 198.934 176.495 186.029 172.077 181.611 155.567 181.378 154.52ZM63.8311 214.049C71.3885 207.538 78.9459 201.144 86.6196 194.516 88.8287 220.909 102.548 240.326 125.337 254.394 121.965 257.417 119.175 259.859 116.384 262.3 90.689 249.744 72.3187 232.885 63.8311 214.049ZM174.286 448.678C173.356 448.678 172.309 448.678 171.379 448.678 168.472 448.678 165.682 448.678 162.775 448.678L162.775 433.331C162.775 433.331 162.891 427.285 168.589 427.285 174.169 427.285 174.402 433.214 174.402 433.214L174.402 448.678ZM218.235 308.924 218.235 434.261 191.261 434.261C191.261 411.472 171.495 410.891 169.054 410.891L168.821 410.891C168.705 410.891 146.381 410.193 146.381 434.261L119.407 434.261 119.407 308.924C119.407 308.924 118.012 273.23 142.196 263.231 142.196 263.231 151.73 268.579 168.821 268.579 174.286 268.579 179.053 267.998 182.889 267.3 191.028 265.789 195.446 263.347 195.446 263.347 219.63 273.23 218.235 308.924 218.235 308.924ZM211.259 254.511C234.047 240.326 247.767 220.909 249.976 194.633 257.65 201.144 265.207 207.655 272.765 214.166 264.277 232.885 245.907 249.744 220.211 262.533 217.421 259.975 214.631 257.417 211.259 254.511Z" fill="#FFFFFF" transform="matrix(1.00154 0 0 1 445 117)"/><path d="M168.821 271.369C148.707 271.369 132.313 287.763 132.313 307.878L132.313 355.896C132.313 376.011 148.707 392.404 168.821 392.404 188.935 392.404 205.329 376.011 205.329 355.896L205.329 307.878C205.329 287.763 188.935 271.369 168.821 271.369Z" fill="#FFFFFF" transform="matrix(1.00154 0 0 1 445 117)"/><path d="M182.076 156.613 182.889 158.241C183.122 158.008 183.355 157.776 183.703 157.427 183.355 157.078 183.006 156.613 182.657 156.264 182.424 156.38 182.192 156.497 182.076 156.613Z" fill="#FFFFFF" transform="matrix(1.00154 0 0 1 445 117)"/><path d="M146.963 192.191C146.963 197.264 142.85 201.376 137.778 201.376 132.705 201.376 128.592 197.264 128.592 192.191 128.592 187.118 132.705 183.006 137.778 183.006 142.85 183.006 146.963 187.118 146.963 192.191Z" fill="#FFFFFF" transform="matrix(1.00154 0 0 1 445 117)"/><path d="M207.887 192.191C207.887 197.264 203.775 201.376 198.702 201.376 193.629 201.376 189.517 197.264 189.517 192.191 189.517 187.118 193.629 183.006 198.702 183.006 203.775 183.006 207.887 187.118 207.887 192.191Z" fill="#FFFFFF" transform="matrix(1.00154 0 0 1 445 117)"/><path d="M173.704 212.77 162.543 212.77C160.799 212.77 159.403 214.166 159.403 215.91 159.403 217.654 160.799 219.049 162.543 219.049L173.704 219.049C175.448 219.049 176.844 217.654 176.844 215.91 176.844 214.166 175.448 212.77 173.704 212.77Z" fill="#FFFFFF" transform="matrix(1.00154 0 0 1 445 117)"/><path d="M131.964 99.9904C131.964 105.063 127.852 109.176 122.779 109.176 117.706 109.176 113.594 105.063 113.594 99.9904 113.594 94.9176 117.706 90.8053 122.779 90.8053 127.852 90.8053 131.964 94.9176 131.964 99.9904Z" fill="#FFFFFF" transform="matrix(1.00154 0 0 1 445 117)"/><path d="M222.421 99.9904C222.421 105.063 218.308 109.176 213.235 109.176 208.163 109.176 204.05 105.063 204.05 99.9904 204.05 94.9176 208.163 90.8053 213.235 90.8053 218.308 90.8053 222.421 94.9176 222.421 99.9904Z" fill="#FFFFFF" transform="matrix(1.00154 0 0 1 445 117)"/><path d="M184.168 106.036C184.168 113.549 177.141 119.64 168.472 119.64 159.803 119.64 152.776 113.549 152.776 106.036 152.776 98.5234 159.803 92.433 168.472 92.433 177.141 92.433 184.168 98.5234 184.168 106.036Z" fill="#FFFFFF" transform="matrix(1.00154 0 0 1 445 117)"/><path d="M262.766 66.0402C251.371 71.3885 243.814 81.155 241.14 84.9919 246.953 91.3866 251.139 96.8512 254.162 101.386 263.231 83.3641 262.766 66.0402 262.766 66.0402Z" fill="#FFFFFF" transform="matrix(1.00154 0 0 1 445 117)"/><path d="M95.456 85.8057C93.5957 82.899 85.6895 71.7373 73.1325 65.8077 73.1325 65.8077 72.6675 84.178 82.6665 102.897 87.0847 95.8048 91.5029 90.2239 95.456 85.8057Z" fill="#FFFFFF" transform="matrix(1.00154 0 0 1 445 117)"/></g></svg>