<?xml version="1.0" encoding="utf-8"?>
<!-- Generator: Adobe Illustrator 27.5.0, SVG Export Plug-In . SVG Version: 6.00 Build 0)  -->
<svg version="1.1" id="Capa_1" xmlns="http://www.w3.org/2000/svg" xmlns:xlink="http://www.w3.org/1999/xlink" x="0px" y="0px"
	 viewBox="0 0 759 728" style="enable-background:new 0 0 759 728;" xml:space="preserve">
<style type="text/css">
	.st0{fill:#FFFFFF;}
</style>
<g>
	<g>
		<g>
			<g>
				<path class="st0" d="M309.5,116.8L442.5,10.6h-88.1c-41.4,0-69.9,41.6-55,80.2L309.5,116.8z"/>
				<path class="st0" d="M315.2,131.6l11.6,30.1l91.3,39.6c3.9-6.5,9.9-11.8,17.4-14.7c5.4-2.1,11-2.8,16.4-2.3l60-138.4
					c-8.3-18.9-25.8-31.9-46-34.7L315.2,131.6z"/>
				<path class="st0" d="M149.9,590.6c-1.2,0-2.4-0.1-3.5-0.3L92,717.4h49.7l101.5-77.6l9.5-29l-81.3-33.1
					C167.3,585.4,159.2,590.6,149.9,590.6z"/>
				<path class="st0" d="M438.5,527.9c4.8,0,9.3,1.2,13.4,3.2l181.3-181.3L521.5,69.6l-52.4,120.9c5.7,3.9,10.3,9.5,13,16.3
					c7.3,18.4-1.8,39.3-20.2,46.6c-6.9,2.7-14.1,3.2-20.8,1.7l-41.4,95.5l26.8,69.4c14.9,38.6-13.6,80.2-55,80.2h0
					c-25.1,0-47.4,15.8-55.7,39.5l-7.8,22.2c-11.3,32.3,7.1,65.8,37.5,75.6l66.5-66.5c-2-4-3.2-8.5-3.2-13.4
					C408.8,541.2,422.1,527.9,438.5,527.9z"/>
				<path class="st0" d="M415.3,233.1c-1.8-4.7-2.6-9.5-2.5-14.2L336,185.6l54.3,140.7l34.5-79.5
					C420.8,243.1,417.4,238.5,415.3,233.1z"/>
				<path class="st0" d="M158.6,717.4h31.5c16.5,0,31.2-10.6,36.3-26.3l11.2-34.1L158.6,717.4z"/>
				<path class="st0" d="M640.2,644.5c-3.8,1.7-8.2,2.4-12.6,1.7c-12.3-1.9-20.7-13.4-18.7-25.7c0.7-4.5,2.7-8.4,5.5-11.5L577,558
					l9.2-6.7l37.6,51.4c3.3-1.1,7-1.5,10.7-0.9c12.3,1.9,20.7,13.4,18.7,25.7c-0.6,3.7-2,7.1-4.1,9.9l57.4,78.5
					c33.9-8,54.8-44.9,41.1-79.2L639.3,365L463.2,541.1c3.2,4.7,5,10.4,5,16.5c0,16.4-13.3,29.7-29.7,29.7c-6.1,0-11.8-1.9-16.5-5
					l-57.9,57.9h107.3c24.4,0,46.2,15,55,37.7l0.7,1.8c8.8,22.7,30.6,37.7,55,37.7h110.7c0.2,0,0.4,0,0.7,0L640.2,644.5z"/>
				<path class="st0" d="M135.9,586.3c-6.5-4.5-10.8-11.9-10.8-20.4c0-13.6,11.1-24.7,24.7-24.7c1.8,0,3.5,0.2,5.1,0.5l82-192
					l10.3,4.4l-82.2,192.3c5.8,4.5,9.5,11.5,9.5,19.4c0,0.7,0,1.4-0.1,2.1l81.5,33.2L343.1,336c2.7-8.2,2.5-17.1-0.5-25.2
					l-51.3-137.9l-51.7,51.5c1.7,2.9,2.6,6.2,2.6,9.8c0,10.9-8.8,19.7-19.7,19.7c-3.6,0-7-1-9.9-2.7l-76.2,75.8L9.6,665.8
					c-9.3,25,9.1,51.6,35.8,51.6h34.5L135.9,586.3z"/>
				<path class="st0" d="M202.9,234c0-2.1,0.3-4.1,1-6.1l-26.4-10.7l-31.6,84.5l59.2-58.9C203.7,240.2,202.9,237.2,202.9,234z"/>
				<path class="st0" d="M209.6,219.3c3.5-3,8-4.9,13-4.9c3.2,0,6.3,0.8,8.9,2.2l55.5-55.3l-8.5-22.8c-12.3-33.2-59.2-33.2-71.6-0.1
					L181,207.7L209.6,219.3z"/>
			</g>
		</g>
	</g>
	<g>
		<circle class="st0" cx="149" cy="567" r="13.5"/>
		<circle class="st0" cx="438.4" cy="557.1" r="13.5"/>
		<circle class="st0" cx="447.5" cy="219.1" r="19.1"/>
		<circle class="st0" cx="221.1" cy="233.5" r="9.2"/>
		<circle class="st0" cx="630.1" cy="624" r="9.6"/>
	</g>
</g>
</svg>
