<?xml version="1.0" encoding="utf-8"?>
<!-- Generator: Adobe Illustrator 27.8.1, SVG Export Plug-In . SVG Version: 6.00 Build 0)  -->
<svg version="1.1" id="Capa_1" xmlns="http://www.w3.org/2000/svg" xmlns:xlink="http://www.w3.org/1999/xlink" x="0px" y="0px"
	 viewBox="0 0 1000 1000" style="enable-background:new 0 0 1000 1000;" xml:space="preserve">
<style type="text/css">
	.st0{fill:#002B4E;}
</style>
<path id="circle-info-solid" class="st0" d="M500,905.5c224,0,405.5-181.6,405.5-405.5S724,94.5,500,94.5S94.5,276,94.5,500
	S276,905.5,500,905.5L500,905.5z M436.6,626.7h38V525.3h-38c-21,0-38-17-38-38s17-38,38-38l0,0h76c21,0,38,16.9,38,37.9
	c0,0.1,0,0.2,0,0.3v139.4h12.7c21,0,38,17,38,38s-17,38-38,38H436.6c-21,0-38-17-38-38s17-38,38-38V626.7z M500,297.3
	c28,0,50.7,22.7,50.7,50.7S528,398.7,500,398.7S449.3,376,449.3,348l0,0c-0.1-28,22.6-50.7,50.6-50.8L500,297.3L500,297.3z"/>
</svg>
