<?xml version="1.0" encoding="utf-8"?>
<!-- Generator: Adobe Illustrator 27.8.1, SVG Export Plug-In . SVG Version: 6.00 Build 0)  -->
<svg version="1.1" id="Capa_1" xmlns="http://www.w3.org/2000/svg" xmlns:xlink="http://www.w3.org/1999/xlink" x="0px" y="0px"
	 viewBox="0 0 1000 1000" style="enable-background:new 0 0 1000 1000;" xml:space="preserve">
<style type="text/css">
	.st0{fill:#00BBC9;}
</style>
<path id="Sustracción_4" class="st0" d="M500,881.2c-210.5,0-381.2-170.6-381.2-381.1c0-101.1,40.2-198.1,111.7-269.6
	c148.8-148.8,390.2-148.8,539,0s148.8,390.2,0,539l0,0C698.2,841.2,601.2,881.4,500,881.2z M330.4,471.7
	c-15.6,0-28.3,12.7-28.3,28.3c0,7.5,3,14.7,8.3,20l113.1,113.1c11.1,11,29,11,40,0l226.3-226.2c11-11.1,11-29,0-40
	c-5.3-5.3-12.4-8.3-19.9-8.3c-7.5,0-14.7,3-20,8.3L443.5,573l-93.1-93C345.1,474.7,337.9,471.7,330.4,471.7z"/>
</svg>
