<?xml version="1.0" encoding="utf-8"?>
<!-- Generator: Adobe Illustrator 27.8.1, SVG Export Plug-In . SVG Version: 6.00 Build 0)  -->
<svg version="1.1" id="Capa_1" xmlns="http://www.w3.org/2000/svg" xmlns:xlink="http://www.w3.org/1999/xlink" x="0px" y="0px"
	 viewBox="0 0 1000 1000" style="enable-background:new 0 0 1000 1000;" xml:space="preserve">
<style type="text/css">
	.st0{fill:#A30101;}
</style>
<path id="Sustracción_3" class="st0" d="M499,905.5C275.6,905.5,94.5,724.4,94.5,501c0-107.3,42.6-210.2,118.5-286
	c156.9-159.1,413-160.9,572-4s160.9,413,4,572c-1.3,1.3-2.7,2.7-4,4C709.3,863.1,606.3,905.8,499,905.5z M538.1,548.1l176.7-0.1
	c20.9,0,38-17,38-38c0-20.9-17-38-38-38l-176.7,0.1h-75.9l-176.7,0.1c-10.2,0-19.9,4-27,11.2c-14.8,14.8-14.8,38.9-0.1,53.7
	c7.1,7.1,16.8,11.2,26.9,11.2l176.7-0.1L538.1,548.1z"/>
</svg>
