<?xml version="1.0" encoding="utf-8"?>
<!-- Generator: Adobe Illustrator 27.8.1, SVG Export Plug-In . SVG Version: 6.00 Build 0)  -->
<svg version="1.1" id="Capa_1" xmlns="http://www.w3.org/2000/svg" xmlns:xlink="http://www.w3.org/1999/xlink" x="0px" y="0px"
	 viewBox="0 0 1000 1000" style="enable-background:new 0 0 1000 1000;" xml:space="preserve">
<style type="text/css">
	.st0{fill:#A30101;}
</style>
<path id="Sustracción_3" class="st0" d="M499,905.5C275.6,905.5,94.5,724.4,94.5,501c0-107.3,42.6-210.2,118.5-286
	c156.9-159.1,413-160.9,572-4s160.9,413,4,572c-1.3,1.3-2.7,2.7-4,4C709.3,863.1,606.3,905.8,499,905.5z M334.2,327.1
	c-21,0-38,17-38,37.9c0,10.1,4,19.8,11.1,26.9l125,124.9L307.5,641.9c-14.8,14.8-14.8,38.9,0,53.7c7.1,7.1,16.8,11.1,26.9,11.1
	c10.1,0,19.8-4,26.9-11.1l124.9-125l125,124.9c14.8,14.8,38.9,14.8,53.7,0s14.8-38.9,0-53.7l0,0l-125-124.9l124.9-125
	c14.8-14.8,14.8-38.9,0-53.7c-14.8-14.8-38.9-14.8-53.7,0l-124.9,125l-125-124.9C354,331.1,344.3,327.1,334.2,327.1z"/>
</svg>
