<?xml version="1.0" encoding="utf-8"?>
<!-- Generator: Adobe Illustrator 27.5.0, SVG Export Plug-In . SVG Version: 6.00 Build 0)  -->
<svg version="1.1" id="Capa_1" xmlns="http://www.w3.org/2000/svg" xmlns:xlink="http://www.w3.org/1999/xlink" x="0px" y="0px"
	 viewBox="0 0 759 728" style="enable-background:new 0 0 759 728;" xml:space="preserve">
<style type="text/css">
	.st0{fill:url(#SVGID_1_);}
	.st1{fill:url(#SVGID_00000142136971565964788490000009550718374724266907_);}
	.st2{fill:url(#SVGID_00000061465569906943059580000016137576540089714874_);}
	.st3{fill:url(#SVGID_00000157275606319925811690000002381026225453878414_);}
	.st4{fill:url(#SVGID_00000124846304391683455710000000387077171474134711_);}
	.st5{fill:url(#SVGID_00000125581437990997896140000008324876611370253704_);}
	.st6{fill:url(#SVGID_00000182512034606346207680000002235982904778214829_);}
	.st7{fill:url(#SVGID_00000090275750251676134200000006760259427997478791_);}
	.st8{fill:url(#SVGID_00000183247497380374540670000012032366062026434961_);}
	.st9{fill:url(#SVGID_00000145050141656338053900000009962907773373732526_);}
	.st10{fill:#0093A5;}
	.st11{fill:#004E69;}
	.st12{fill:#008094;}
	.st13{fill:#003553;}
</style>
<g>
	<g>
		<g>
			<g>
				<linearGradient id="SVGID_1_" gradientUnits="userSpaceOnUse" x1="57.9968" y1="60.1998" x2="700.3997" y2="60.1998">
					<stop  offset="1.276741e-03" style="stop-color:#00C1CD"/>
					<stop  offset="0.1296" style="stop-color:#00A1B1"/>
					<stop  offset="0.3191" style="stop-color:#00788E"/>
					<stop  offset="0.5051" style="stop-color:#005872"/>
					<stop  offset="0.6838" style="stop-color:#00415E"/>
					<stop  offset="0.8523" style="stop-color:#003452"/>
					<stop  offset="1" style="stop-color:#002F4E"/>
				</linearGradient>
				<path class="st0" d="M311.6,113.3L444.7,7.1h-88.1c-41.4,0-69.9,41.6-55,80.2L311.6,113.3z"/>
				
					<linearGradient id="SVGID_00000013897341535257079660000014898075947678610062_" gradientUnits="userSpaceOnUse" x1="57.9968" y1="102.711" x2="700.3997" y2="102.711">
					<stop  offset="1.276741e-03" style="stop-color:#00C1CD"/>
					<stop  offset="0.1296" style="stop-color:#00A1B1"/>
					<stop  offset="0.3191" style="stop-color:#00788E"/>
					<stop  offset="0.5051" style="stop-color:#005872"/>
					<stop  offset="0.6838" style="stop-color:#00415E"/>
					<stop  offset="0.8523" style="stop-color:#003452"/>
					<stop  offset="1" style="stop-color:#002F4E"/>
				</linearGradient>
				<path style="fill:url(#SVGID_00000013897341535257079660000014898075947678610062_);" d="M317.3,128.1l11.6,30.1l91.3,39.6
					c3.9-6.5,9.9-11.8,17.4-14.7c5.4-2.1,11-2.8,16.4-2.3l60-138.4c-8.3-18.9-25.8-31.9-46-34.7L317.3,128.1z"/>
				
					<linearGradient id="SVGID_00000126292260757077732520000017265414940534290099_" gradientUnits="userSpaceOnUse" x1="57.9968" y1="644.1225" x2="700.3997" y2="644.1225">
					<stop  offset="1.276741e-03" style="stop-color:#00C1CD"/>
					<stop  offset="0.1296" style="stop-color:#00A1B1"/>
					<stop  offset="0.3191" style="stop-color:#00788E"/>
					<stop  offset="0.5051" style="stop-color:#005872"/>
					<stop  offset="0.6838" style="stop-color:#00415E"/>
					<stop  offset="0.8523" style="stop-color:#003452"/>
					<stop  offset="1" style="stop-color:#002F4E"/>
				</linearGradient>
				<path style="fill:url(#SVGID_00000126292260757077732520000017265414940534290099_);" d="M152,587.1c-1.2,0-2.4-0.1-3.5-0.3
					L94.2,713.9h49.7l101.5-77.6l9.5-29l-81.3-33.1C169.5,581.9,161.3,587.1,152,587.1z"/>
				
					<linearGradient id="SVGID_00000002372636661156512750000016874050651848868003_" gradientUnits="userSpaceOnUse" x1="57.9968" y1="349.9716" x2="700.3997" y2="349.9716">
					<stop  offset="1.276741e-03" style="stop-color:#00C1CD"/>
					<stop  offset="0.1296" style="stop-color:#00A1B1"/>
					<stop  offset="0.3191" style="stop-color:#00788E"/>
					<stop  offset="0.5051" style="stop-color:#005872"/>
					<stop  offset="0.6838" style="stop-color:#00415E"/>
					<stop  offset="0.8523" style="stop-color:#003452"/>
					<stop  offset="1" style="stop-color:#002F4E"/>
				</linearGradient>
				<path style="fill:url(#SVGID_00000002372636661156512750000016874050651848868003_);" d="M440.7,524.4c4.8,0,9.3,1.2,13.4,3.2
					l181.3-181.3L523.7,66.1l-52.4,120.9c5.7,3.9,10.3,9.5,13,16.3c7.3,18.4-1.8,39.3-20.2,46.6c-6.9,2.7-14.1,3.2-20.8,1.7
					L401.9,347l26.8,69.4c14.9,38.6-13.6,80.2-55,80.2h0c-25.1,0-47.4,15.8-55.7,39.5l-7.8,22.2c-11.3,32.3,7.1,65.8,37.5,75.6
					l66.5-66.5c-2-4-3.2-8.5-3.2-13.4C411,537.7,424.3,524.4,440.7,524.4z"/>
				
					<linearGradient id="SVGID_00000130608709308653741430000013947409583305227444_" gradientUnits="userSpaceOnUse" x1="57.9968" y1="252.428" x2="700.3997" y2="252.428">
					<stop  offset="1.276741e-03" style="stop-color:#00C1CD"/>
					<stop  offset="0.1296" style="stop-color:#00A1B1"/>
					<stop  offset="0.3191" style="stop-color:#00788E"/>
					<stop  offset="0.5051" style="stop-color:#005872"/>
					<stop  offset="0.6838" style="stop-color:#00415E"/>
					<stop  offset="0.8523" style="stop-color:#003452"/>
					<stop  offset="1" style="stop-color:#002F4E"/>
				</linearGradient>
				<path style="fill:url(#SVGID_00000130608709308653741430000013947409583305227444_);" d="M417.5,229.6
					c-1.8-4.7-2.6-9.5-2.5-14.2l-76.8-33.3l54.3,140.7l34.5-79.5C422.9,239.6,419.6,235,417.5,229.6z"/>
				
					<linearGradient id="SVGID_00000113351790486936642910000000075891508562444728_" gradientUnits="userSpaceOnUse" x1="57.9968" y1="683.7428" x2="700.3997" y2="683.7428">
					<stop  offset="1.276741e-03" style="stop-color:#00C1CD"/>
					<stop  offset="0.1296" style="stop-color:#00A1B1"/>
					<stop  offset="0.3191" style="stop-color:#00788E"/>
					<stop  offset="0.5051" style="stop-color:#005872"/>
					<stop  offset="0.6838" style="stop-color:#00415E"/>
					<stop  offset="0.8523" style="stop-color:#003452"/>
					<stop  offset="1" style="stop-color:#002F4E"/>
				</linearGradient>
				<path style="fill:url(#SVGID_00000113351790486936642910000000075891508562444728_);" d="M160.7,713.9h31.5
					c16.5,0,31.2-10.6,36.3-26.3l11.2-34.1L160.7,713.9z"/>
				
					<linearGradient id="SVGID_00000038386636397793992650000015977510262453275306_" gradientUnits="userSpaceOnUse" x1="57.9968" y1="537.7239" x2="700.3997" y2="537.7239">
					<stop  offset="1.276741e-03" style="stop-color:#00C1CD"/>
					<stop  offset="0.1296" style="stop-color:#00A1B1"/>
					<stop  offset="0.3191" style="stop-color:#00788E"/>
					<stop  offset="0.5051" style="stop-color:#005872"/>
					<stop  offset="0.6838" style="stop-color:#00415E"/>
					<stop  offset="0.8523" style="stop-color:#003452"/>
					<stop  offset="1" style="stop-color:#002F4E"/>
				</linearGradient>
				<path style="fill:url(#SVGID_00000038386636397793992650000015977510262453275306_);" d="M642.3,641c-3.8,1.7-8.2,2.4-12.6,1.7
					c-12.3-1.9-20.7-13.4-18.7-25.7c0.7-4.5,2.7-8.4,5.5-11.5l-37.3-51l9.2-6.7l37.6,51.4c3.3-1.1,7-1.5,10.7-0.9
					c12.3,1.9,20.7,13.4,18.7,25.7c-0.6,3.7-2,7.1-4.1,9.9l57.4,78.5c33.9-8,54.8-44.9,41.1-79.2L641.4,361.5L465.4,537.6
					c3.2,4.7,5,10.4,5,16.5c0,16.4-13.3,29.7-29.7,29.7c-6.1,0-11.8-1.9-16.5-5l-57.9,57.9h107.3c24.4,0,46.2,15,55,37.7l0.7,1.8
					c8.8,22.7,30.6,37.7,55,37.7h110.7c0.2,0,0.4,0,0.7,0L642.3,641z"/>
				
					<linearGradient id="SVGID_00000084501108635149822980000016429465884094075831_" gradientUnits="userSpaceOnUse" x1="57.9968" y1="441.6132" x2="700.3997" y2="441.6132">
					<stop  offset="1.276741e-03" style="stop-color:#00C1CD"/>
					<stop  offset="0.1296" style="stop-color:#00A1B1"/>
					<stop  offset="0.3191" style="stop-color:#00788E"/>
					<stop  offset="0.5051" style="stop-color:#005872"/>
					<stop  offset="0.6838" style="stop-color:#00415E"/>
					<stop  offset="0.8523" style="stop-color:#003452"/>
					<stop  offset="1" style="stop-color:#002F4E"/>
				</linearGradient>
				<path style="fill:url(#SVGID_00000084501108635149822980000016429465884094075831_);" d="M138.1,582.8
					c-6.5-4.5-10.8-11.9-10.8-20.4c0-13.6,11.1-24.7,24.7-24.7c1.8,0,3.5,0.2,5.1,0.5l82-192l10.3,4.4L167.2,543
					c5.8,4.5,9.5,11.5,9.5,19.4c0,0.7,0,1.4-0.1,2.1l81.5,33.2l87.1-265.2c2.7-8.2,2.5-17.1-0.5-25.2l-51.3-137.9l-51.7,51.5
					c1.7,2.9,2.6,6.2,2.6,9.8c0,10.9-8.8,19.7-19.7,19.7c-3.6,0-7-1-9.9-2.7l-76.2,75.8l-126.8,339c-9.3,25,9.1,51.6,35.8,51.6H82
					L138.1,582.8z"/>
				
					<linearGradient id="SVGID_00000181771315921386242110000007960534296393161858_" gradientUnits="userSpaceOnUse" x1="57.9968" y1="256.0304" x2="700.3997" y2="256.0304">
					<stop  offset="1.276741e-03" style="stop-color:#00C1CD"/>
					<stop  offset="0.1296" style="stop-color:#00A1B1"/>
					<stop  offset="0.3191" style="stop-color:#00788E"/>
					<stop  offset="0.5051" style="stop-color:#005872"/>
					<stop  offset="0.6838" style="stop-color:#00415E"/>
					<stop  offset="0.8523" style="stop-color:#003452"/>
					<stop  offset="1" style="stop-color:#002F4E"/>
				</linearGradient>
				<path style="fill:url(#SVGID_00000181771315921386242110000007960534296393161858_);" d="M205,230.5c0-2.1,0.3-4.1,1-6.1
					l-26.4-10.7L148,298.3l59.2-58.9C205.8,236.7,205,233.7,205,230.5z"/>
				
					<linearGradient id="SVGID_00000048461990701307929340000005727551131778811275_" gradientUnits="userSpaceOnUse" x1="57.9968" y1="162.9645" x2="700.3997" y2="162.9645">
					<stop  offset="1.276741e-03" style="stop-color:#00C1CD"/>
					<stop  offset="0.1296" style="stop-color:#00A1B1"/>
					<stop  offset="0.3191" style="stop-color:#00788E"/>
					<stop  offset="0.5051" style="stop-color:#005872"/>
					<stop  offset="0.6838" style="stop-color:#00415E"/>
					<stop  offset="0.8523" style="stop-color:#003452"/>
					<stop  offset="1" style="stop-color:#002F4E"/>
				</linearGradient>
				<path style="fill:url(#SVGID_00000048461990701307929340000005727551131778811275_);" d="M211.7,215.8c3.5-3,8-4.9,13-4.9
					c3.2,0,6.3,0.8,8.9,2.2l55.5-55.3l-8.5-22.8c-12.3-33.2-59.2-33.2-71.6-0.1l-25.9,69.3L211.7,215.8z"/>
			</g>
		</g>
	</g>
	<g>
		<circle class="st10" cx="151.2" cy="563.5" r="13.5"/>
		<circle class="st11" cx="440.6" cy="553.6" r="13.5"/>
		<circle class="st11" cx="449.6" cy="215.6" r="19.1"/>
		<circle class="st12" cx="223.3" cy="230" r="9.2"/>
		<circle class="st13" cx="632.2" cy="620.5" r="9.6"/>
	</g>
</g>
</svg>
