<svg width="2200" height="2223" xmlns="http://www.w3.org/2000/svg" xmlns:xlink="http://www.w3.org/1999/xlink" overflow="hidden"><defs><clipPath id="clip0"><rect x="1100" y="42" width="2200" height="2223"/></clipPath><clipPath id="clip1"><rect x="1591" y="41" width="1218" height="1673"/></clipPath><clipPath id="clip2"><rect x="1591" y="41" width="1218" height="1673"/></clipPath><clipPath id="clip3"><rect x="1591" y="41" width="1218" height="1673"/></clipPath></defs><g clip-path="url(#clip0)" transform="translate(-1100 -42)"><g clip-path="url(#clip1)"><g clip-path="url(#clip2)"><g clip-path="url(#clip3)"><path d="M2398.4 1589.2 2398.4 1533.2C2398.4 1533.2 2573.6 1547.2 2677.2 1372 2696.8 1329.6 2713.2 1314.8 2717.2 1187.6 2721.2 1060.4 2734.4 1030.8 2750.8 996.4 2750.8 996.4 2715.2 970 2644.8 952.4 2574.4 934.8 2474.4 940 2386.8 994.4L2384 988.8C2384 988.8 2535.6 922.8 2578 796.4 2578 796.4 2605.2 812.4 2624.8 813.2 2624.8 813.2 2658.4 645.2 2547.2 456.8 2547.2 456.8 2653.2 354.8 2578 108.8 2578 108.8 2447.6 154.4 2353.6 235.2 2353.6 235.2 2312 210.8 2259.6 196.8 2259.6 196.8 2302 124 2271.6 91.9999 2271.6 91.9999 2235.2 146.8 2142.8 138.4 2142.8 138.4 2150 100.8 2130 78.7999 2130 78.7999 2113.2 111.2 2073.6 136 2034 160.8 1994 178.8 1974.8 224.4 1974.8 224.4 1910 156.8 1762.8 108 1762.8 108 1682 329.6 1792.4 454.8 1792.4 454.8 1696.8 583.2 1713.6 815.6 1713.6 815.6 1739.2 808.8 1757.6 800.4 1757.6 800.4 1802.8 914 1956.8 990.8 1956.8 990.8 1876.4 1119.6 1856.8 1256.8 1847.6 1330.8 1922.8 1338.4 1945.2 1309.6L1945.2 1590C1764.8 1596.8 1640.4 1611.2 1640.4 1628 1640.4 1651.2 1882.8 1670 2181.6 1670 2480.4 1670 2722.8 1651.2 2722.8 1628 2722.8 1610.4 2589.2 1595.6 2398.4 1589.2ZM2398.4 1310.4C2438.4 1352 2490.8 1312.8 2485.6 1270.8 2474.8 1185.6 2444 1104.8 2427.6 1066.8 2476 1022 2535.6 1034 2535.6 1034 2490 1077.2 2490.8 1121.2 2490.8 1121.2L2490.4 1121.2 2490.8 1122.4 2490.8 1121.6C2552 1102.4 2582.4 1111.2 2582.4 1111.2 2544 1174.8 2574 1228.4 2574 1228.4 2607.2 1193.2 2638.8 1165.6 2638.8 1165.6 2640 1172.4 2641.6 1180 2642.8 1188 2647.2 1218 2650.4 1254.4 2652 1276.8 2589.6 1489.6 2398.4 1479.6 2398.4 1479.6L2398.4 1310.4ZM1770.4 680.4C1786.8 572 1841.2 464.4 1845.2 456.8L1845.6 456.4C1760.8 316.8 1803.6 193.2 1803.6 193.2 1920.4 227.2 1961.6 299.6 1961.6 299.6 1999.6 269.2 2014.4 265.2 2014.4 265.2 2033.6 194.4 2103.2 184 2103.2 184L2098.8 220.4C2130 175.6 2205.2 179.2 2205.2 179.2 2199.6 183.2 2152.4 218 2152.4 218 2295.2 219.6 2365.2 278.4 2377.2 289.2 2377.6 289.6 2378.4 290.4 2378.8 290.8 2448.4 216.4 2537.2 189.2 2537.2 189.2 2581.6 343.2 2492 440.4 2492 440.4 2543.6 551.6 2564.4 629.2 2572.8 677.2 2580 719.2 2578 738.8 2578 738.8 2578 738.8 2524 723.2 2472 655.2 2420 586.8 2322.8 495.6 2171.2 495.6 2020 495.6 1955.2 555.6 1879.6 642.8 1804 730 1765.6 739.2 1765.6 739.2 1765.6 720 1767.6 700 1770.4 680.4ZM2216 573.6C2296 677.6 2396 648 2396 648 2397.2 658.4 2398 668.4 2398 679.2 2398 805.2 2296 907.2 2170 907.2 2044 907.2 1942 805.2 1942 679.2 1942 667.6 1942.8 656.4 1944.4 645.6 1995.6 592 2036 572 2058.8 564.4 2072.4 559.6 2080 559.6 2080 559.6 2103.2 609.2 2140.4 633.2 2176 644.4 2227.6 660.4 2276.4 649.2 2276.4 649.2 2232 634 2216.8 577.2 2216 573.6ZM1811.6 778.4C1837.6 756 1863.6 734 1890 711.2 1897.6 802 1944.8 868.8 2023.2 917.2 2011.6 927.6 2002 936 1992.4 944.4 1904 901.2 1840.8 843.2 1811.6 778.4ZM2191.6 1585.6C2188.4 1585.6 2184.8 1585.6 2181.6 1585.6 2171.6 1585.6 2162 1585.6 2152 1585.6L2152 1532.8C2152 1532.8 2152.4 1512 2172 1512 2191.2 1512 2192 1532.4 2192 1532.4L2192 1585.6ZM2342.8 1104.8 2342.8 1536 2250 1536C2250 1457.6 2182 1455.6 2173.6 1455.6L2172.8 1455.6C2172.4 1455.6 2095.6 1453.2 2095.6 1536L2002.8 1536 2002.8 1104.8C2002.8 1104.8 1998 982 2081.2 947.6 2081.2 947.6 2114 966 2172.8 966 2191.6 966 2208 964 2221.2 961.6 2249.2 956.4 2264.4 948 2264.4 948 2347.6 982 2342.8 1104.8 2342.8 1104.8ZM2318.8 917.6C2397.2 868.8 2444.4 802 2452 711.6 2478.4 734 2504.4 756.4 2530.4 778.8 2501.2 843.2 2438 901.2 2349.6 945.2 2340 936.4 2330.4 927.6 2318.8 917.6Z" fill="#FFFFFF"/><path d="M2172.8 975.6C2103.6 975.6 2047.2 1032 2047.2 1101.2L2047.2 1266.4C2047.2 1335.6 2103.6 1392 2172.8 1392 2242 1392 2298.4 1335.6 2298.4 1266.4L2298.4 1101.2C2298.4 1032 2242 975.6 2172.8 975.6Z" fill="#FFFFFF"/><path d="M2218.4 580.8 2221.2 586.4C2222 585.6 2222.8 584.8 2224 583.6 2222.8 582.4 2221.6 580.8 2220.4 579.6 2219.6 580 2218.8 580.4 2218.4 580.8Z" fill="#FFFFFF"/><path d="M2097.6 703.2C2097.6 720.652 2083.45 734.8 2066 734.8 2048.55 734.8 2034.4 720.652 2034.4 703.2 2034.4 685.748 2048.55 671.6 2066 671.6 2083.45 671.6 2097.6 685.748 2097.6 703.2Z" fill="#FFFFFF"/><path d="M2307.2 703.2C2307.2 720.652 2293.05 734.8 2275.6 734.8 2258.15 734.8 2244 720.652 2244 703.2 2244 685.748 2258.15 671.6 2275.6 671.6 2293.05 671.6 2307.2 685.748 2307.2 703.2Z" fill="#FFFFFF"/><path d="M2189.6 774 2151.2 774C2145.2 774 2140.4 778.8 2140.4 784.8 2140.4 790.8 2145.2 795.6 2151.2 795.6L2189.6 795.6C2195.6 795.6 2200.4 790.8 2200.4 784.8 2200.4 778.8 2195.6 774 2189.6 774Z" fill="#FFFFFF"/><path d="M2046 386C2046 403.452 2031.85 417.6 2014.4 417.6 1996.95 417.6 1982.8 403.452 1982.8 386 1982.8 368.548 1996.95 354.4 2014.4 354.4 2031.85 354.4 2046 368.548 2046 386Z" fill="#FFFFFF"/><path d="M2357.2 386C2357.2 403.452 2343.05 417.6 2325.6 417.6 2308.15 417.6 2294 403.452 2294 386 2294 368.548 2308.15 354.4 2325.6 354.4 2343.05 354.4 2357.2 368.548 2357.2 386Z" fill="#FFFFFF"/><path d="M2225.6 406.8C2225.6 432.647 2201.42 453.6 2171.6 453.6 2141.78 453.6 2117.6 432.647 2117.6 406.8 2117.6 380.953 2141.78 360 2171.6 360 2201.42 360 2225.6 380.953 2225.6 406.8Z" fill="#FFFFFF"/><path d="M2496 269.2C2456.8 287.6 2430.8 321.2 2421.6 334.4 2441.6 356.4 2456 375.2 2466.4 390.8 2497.6 328.8 2496 269.2 2496 269.2Z" fill="#FFFFFF"/><path d="M1920.4 337.2C1914 327.2 1886.8 288.8 1843.6 268.4 1843.6 268.4 1842 331.6 1876.4 396 1891.6 371.6 1906.8 352.4 1920.4 337.2Z" fill="#FFFFFF"/></g></g></g><path d="M1357 2013.41 1357 1788.59C1357 1777.27 1366.3 1768 1377.66 1768L1401.76 1768C1407.27 1768 1412.43 1770.06 1416.22 1774.18L1561.51 1919.02C1574.6 1932.06 1596.63 1922.8 1596.63 1904.6L1596.63 1788.59C1596.63 1777.27 1605.93 1768 1617.29 1768L1629.34 1768C1640.7 1768 1650 1777.27 1650 1788.59L1650 2013.41C1650 2024.73 1640.7 2034 1629.34 2034L1605.24 2034C1599.73 2034 1594.57 2031.94 1590.78 2027.82L1445.49 1882.98C1432.4 1869.94 1410.37 1879.21 1410.37 1897.4L1410.37 2013.41C1410.37 2024.73 1401.07 2034 1389.71 2034L1377.66 2034C1366.3 2033.66 1357 2024.73 1357 2013.41Z" fill="#FFFFFF" fill-rule="evenodd"/><path d="M1938 2013.69 1938 1788.65C1938 1777.29 1947.26 1768 1958.57 1768L1970.23 1768C1981.54 1768 1990.79 1777.29 1990.79 1788.65L1990.79 1960.35C1990.79 1971.71 2000.05 1981 2011.36 1981L2182.43 1981C2193.74 1981 2203 1990.29 2203 2001.65L2203 2013.34C2203 2024.7 2193.74 2033.99 2182.43 2033.99L1958.23 2033.99C1947.26 2034.33 1938 2025.04 1938 2013.69Z" fill="#FFFFFF" fill-rule="evenodd"/><path d="M2278.26 2015.79 2278.26 1908.56C2278.26 1903.75 2276.19 1898.94 2272.76 1895.5L2176.48 1799.27C2164.79 1787.59 2173.04 1768 2189.55 1768L2217.4 1768C2222.21 1768 2227.02 1770.06 2230.46 1773.5L2292.01 1835.02C2299.23 1842.23 2310.92 1842.23 2318.14 1835.02L2379.69 1773.5C2383.13 1770.06 2387.94 1768 2392.76 1768L2420.61 1768C2437.11 1768 2445.02 1787.93 2433.67 1799.27L2337.4 1895.5C2333.96 1898.94 2331.9 1903.75 2331.9 1908.56L2331.9 2015.79C2331.9 2026.1 2323.64 2034 2313.67 2034L2297.17 2034C2286.51 2034 2278.26 2026.1 2278.26 2015.79Z" fill="#FFFFFF" fill-rule="evenodd"/><path d="M2452 2019.55 2452 1986.86C2452 1983.07 2453.37 1979.29 2456.12 1976.53L2586.61 1845.77C2595.88 1836.48 2589.36 1820.99 2576.31 1820.99L2466.42 1820.99C2458.52 1820.99 2452 1814.46 2452 1806.54L2452 1782.45C2452 1774.54 2458.52 1768 2466.42 1768L2676.58 1768C2684.48 1768 2691 1774.54 2691 1782.45L2691 1815.14C2691 1818.93 2689.63 1822.71 2686.88 1825.47L2556.39 1956.23C2547.12 1965.52 2553.64 1981.01 2566.69 1981.01L2676.58 1981.01C2684.48 1981.01 2691 1987.54 2691 1995.46L2691 2019.55C2691 2027.46 2684.48 2034 2676.58 2034L2466.42 2034C2458.52 2034 2452 2027.81 2452 2019.55Z" fill="#FFFFFF" fill-rule="evenodd"/><path d="M2714 2014.97 2714 1787.26C2714 1776.6 2722.59 1768 2733.25 1768L2960.75 1768C2971.41 1768 2980 1776.6 2980 1787.26L2980 1801.71C2980 1812.37 2971.41 1820.97 2960.75 1820.97L2786.51 1820.97C2775.86 1820.97 2767.27 1829.57 2767.27 1840.23L2767.27 1854.68C2767.27 1865.34 2775.86 1873.94 2786.51 1873.94L2907.49 1873.94C2918.14 1873.94 2926.73 1882.54 2926.73 1893.2L2926.73 1907.65C2926.73 1918.31 2918.14 1926.91 2907.49 1926.91L2786.51 1926.91C2775.86 1926.91 2767.27 1935.51 2767.27 1946.18L2767.27 1960.62C2767.27 1971.29 2775.86 1979.88 2786.51 1979.88L2960.75 1979.88C2971.41 1979.88 2980 1988.48 2980 1999.15L2980 2013.59C2980 2024.26 2971.41 2032.86 2960.75 2032.86L2733.25 2032.86C2722.59 2034.23 2714 2025.63 2714 2014.97Z" fill="#FFFFFF" fill-rule="evenodd"/><path d="M3003 2018.83 3003 1783.83C3003 1775.23 3010.21 1768 3018.8 1768L3215.66 1768C3230.43 1768 3242.8 1773.16 3253.11 1783.83 3263.76 1794.49 3268.91 1806.88 3268.91 1821.33L3268.91 1874.66C3268.91 1889.8 3263.76 1902.19 3253.11 1912.51 3248.64 1916.64 3243.83 1920.08 3239.02 1922.83 3229.74 1927.31 3227.34 1939.69 3234.55 1946.92L3295.36 2007.82C3305.33 2017.8 3298.11 2034.66 3284.37 2034.66L3248.98 2034.66C3244.86 2034.66 3240.74 2032.94 3237.99 2030.18L3109.85 1901.84C3099.88 1891.87 3107.1 1875.01 3120.84 1875.01L3189.21 1875.01C3196.42 1875.01 3202.6 1872.6 3207.76 1867.44 3212.91 1862.28 3215.66 1855.74 3215.66 1848.17 3215.66 1840.94 3212.91 1834.75 3207.76 1829.59 3202.6 1824.43 3196.42 1821.68 3189.21 1821.68L3072.05 1821.68C3063.47 1821.68 3056.25 1828.9 3056.25 1837.5L3056.25 2019.17C3056.25 2027.77 3049.04 2035 3040.45 2035L3018.8 2035C3009.87 2034.31 3003 2027.43 3003 2018.83Z" fill="#FFFFFF" fill-rule="evenodd"/><path d="M1660.39 2013.69 1770.4 1792.74C1775.55 1782.42 1790.28 1782.42 1795.42 1792.74L1905.44 2013.69C1910.24 2022.99 1903.38 2034 1892.76 2034L1871.51 2034C1866.03 2034 1861.23 2030.9 1858.83 2026.08L1853.35 2015.07C1850.95 2010.25 1846.15 2007.16 1840.66 2007.16L1725.16 2007.16C1719.68 2007.16 1714.88 2010.25 1712.48 2015.07L1707 2026.08C1704.6 2030.9 1699.8 2034 1694.32 2034L1672.73 2034C1662.79 2034 1655.93 2022.99 1660.39 2013.69ZM1812.56 1933.85 1795.42 1899.43C1790.28 1889.11 1775.55 1889.11 1770.4 1899.43L1753.27 1933.85C1748.47 1943.14 1755.32 1954.16 1765.95 1954.16L1800.22 1954.16C1810.5 1954.16 1817.36 1943.14 1812.56 1933.85Z" fill="#FFFFFF" fill-rule="evenodd"/><path d="M1101.57 2013.69 1211.95 1792.74C1217.11 1782.42 1231.9 1782.42 1237.05 1792.74L1347.44 2013.69C1352.25 2022.99 1345.37 2034 1334.71 2034L1313.05 2034C1307.55 2034 1302.73 2030.9 1300.33 2026.08L1294.82 2015.07C1292.42 2010.25 1287.6 2007.16 1282.1 2007.16L1166.56 2007.16C1161.06 2007.16 1156.24 2010.25 1153.84 2015.07L1148.33 2026.08C1145.93 2030.9 1141.11 2034 1135.61 2034L1113.95 2034C1103.63 2034 1096.75 2022.99 1101.57 2013.69ZM1254.25 1933.85 1237.05 1899.43C1231.9 1889.11 1217.11 1889.11 1211.95 1899.43L1194.76 1933.85C1189.94 1943.14 1196.82 1954.16 1207.48 1954.16L1241.87 1954.16C1252.18 1954.16 1259.06 1943.14 1254.25 1933.85Z" fill="#FFFFFF" fill-rule="evenodd"/><path d="M1416 2250.84 1423.88 2233.28C1433.48 2241.2 1448.9 2246.7 1463.99 2246.7 1482.84 2246.7 1490.72 2239.82 1490.72 2230.87 1490.72 2204.71 1418.74 2221.92 1418.74 2176.49 1418.74 2156.87 1434.51 2140 1467.76 2140 1482.15 2140 1497.58 2143.79 1508.2 2150.67L1501 2168.22C1490.04 2161.69 1478.04 2158.59 1467.41 2158.59 1448.56 2158.59 1441.02 2165.82 1441.02 2175.11 1441.02 2200.93 1513 2184.06 1513 2228.81 1513 2248.43 1497.23 2264.95 1463.99 2264.95 1445.13 2265.64 1426.28 2259.44 1416 2250.84Z" fill="#FFFFFF" fill-rule="evenodd"/><path d="M1714 2245.05 1714 2264 1622 2264 1622 2142 1711.58 2142 1711.58 2160.96 1644.83 2160.96 1644.83 2192.66 1703.97 2192.66 1703.97 2211.27 1644.83 2211.27 1644.83 2245.05 1714 2245.05Z" fill="#FFFFFF" fill-rule="evenodd"/><path d="M1905.63 2264 1880.92 2228.16C1879.2 2228.5 1877.83 2228.5 1876.11 2228.5L1848.65 2228.5 1848.65 2264 1826 2264 1826 2142 1876.11 2142C1908.03 2142 1927.94 2158.54 1927.94 2185.42 1927.94 2204.03 1918.67 2217.47 1902.2 2224.02L1930 2264 1905.63 2264ZM1875.08 2160.96 1848.65 2160.96 1848.65 2209.55 1875.08 2209.55C1894.99 2209.55 1905.29 2200.59 1905.29 2185.08 1905.29 2169.92 1894.99 2160.96 1875.08 2160.96Z" fill="#FFFFFF" fill-rule="evenodd"/><path d="M2151 2142 2098.29 2264 2076.05 2264 2023 2142 2047.3 2142 2087.68 2236.08 2128.41 2142 2151 2142Z" fill="#FFFFFF" fill-rule="evenodd"/><path d="M2251 2142 2274 2142 2274 2264 2251 2264 2251 2142Z" fill="#FFFFFF" fill-rule="evenodd"/><path d="M2385 2202.67C2385 2166.17 2412.74 2140 2450.06 2140 2469.92 2140 2486.7 2147.23 2498 2160.31L2483.62 2174.09C2474.72 2164.45 2463.76 2159.97 2451.09 2159.97 2426.09 2159.97 2407.6 2177.87 2407.6 2202.67 2407.6 2227.46 2425.75 2245.36 2451.09 2245.36 2463.76 2245.36 2474.72 2240.54 2483.62 2230.9L2498 2244.67C2486.7 2257.76 2469.92 2264.99 2449.72 2264.99 2412.74 2265.68 2385 2239.16 2385 2202.67Z" fill="#FFFFFF" fill-rule="evenodd"/><path d="M2698 2245.05 2698 2264 2607 2264 2607 2142 2695.61 2142 2695.61 2160.96 2629.58 2160.96 2629.58 2192.66 2688.08 2192.66 2688.08 2211.27 2629.58 2211.27 2629.58 2245.05 2698 2245.05Z" fill="#FFFFFF" fill-rule="evenodd"/><path d="M2800 2250.84 2807.88 2233.28C2817.48 2241.2 2832.9 2246.7 2847.99 2246.7 2866.84 2246.7 2874.72 2239.82 2874.72 2230.87 2874.72 2204.71 2802.74 2221.92 2802.74 2176.49 2802.74 2156.87 2818.51 2140 2851.76 2140 2866.15 2140 2881.58 2143.79 2892.2 2150.67L2885 2168.22C2874.04 2161.69 2862.04 2158.59 2851.41 2158.59 2832.56 2158.59 2825.02 2165.82 2825.02 2175.11 2825.02 2200.93 2897 2184.06 2897 2228.81 2897 2248.43 2881.23 2264.95 2847.99 2264.95 2828.79 2265.64 2809.94 2259.44 2800 2250.84Z" fill="#FFFFFF" fill-rule="evenodd"/></g></svg>