<svg width="3266" height="1100" xmlns="http://www.w3.org/2000/svg" xmlns:xlink="http://www.w3.org/1999/xlink" overflow="hidden"><defs><clipPath id="clip0"><rect x="606" y="557" width="3266" height="1100"/></clipPath><clipPath id="clip1"><rect x="606" y="556" width="800" height="1101"/></clipPath><clipPath id="clip2"><rect x="606" y="556" width="800" height="1101"/></clipPath><clipPath id="clip3"><rect x="606" y="556" width="800" height="1101"/></clipPath></defs><g clip-path="url(#clip0)" transform="translate(-606 -557)"><path d="M1838 1224.4 1838 989.596C1838 977.598 1847.64 968 1859.68 968L1884.81 968C1890.66 968 1896.16 970.399 1899.95 974.17L2052.07 1125.68C2065.84 1139.05 2088.9 1129.8 2088.9 1110.6L2088.9 989.596C2088.9 977.598 2098.54 968 2110.58 968L2123.32 968C2135.36 968 2145 977.598 2145 989.596L2145 1224.4C2145 1236.4 2135.36 1246 2123.32 1246L2098.19 1246C2092.34 1246 2086.84 1243.6 2083.05 1239.83L1930.58 1087.98C1916.82 1074.61 1893.76 1083.86 1893.76 1103.06L1893.76 1224.06C1893.76 1236.06 1884.12 1245.66 1872.07 1245.66L1859.34 1245.66C1847.64 1246 1838 1236.4 1838 1224.4Z" fill="#FFFFFF" fill-rule="evenodd"/><path d="M2446 1224.71 2446 989.622C2446 977.61 2455.61 968 2467.62 968L2479.98 968C2491.99 968 2501.6 977.61 2501.6 989.622L2501.6 1168.77C2501.6 1180.78 2511.21 1190.39 2523.22 1190.39L2702.38 1190.39C2714.39 1190.39 2724 1200 2724 1212.02L2724 1224.37C2724 1236.38 2714.39 1245.99 2702.38 1245.99L2467.62 1245.99C2455.61 1246.34 2446 1236.38 2446 1224.71Z" fill="#FFFFFF" fill-rule="evenodd"/><path d="M2801.68 1226.78 2801.68 1114.89C2801.68 1109.75 2799.62 1104.94 2796.19 1101.51L2695.6 1000.95C2683.59 988.936 2692.17 968 2709.33 968L2738.51 968C2743.66 968 2748.47 970.059 2752.24 973.491L2816.44 1037.67C2823.99 1045.22 2836.01 1045.22 2843.56 1037.67L2907.76 973.491C2911.19 969.716 2916.34 968 2921.49 968L2950.67 968C2967.83 968 2976.41 988.593 2964.4 1000.95L2863.81 1101.51C2860.38 1105.28 2858.32 1110.09 2858.32 1114.89L2858.32 1226.78C2858.32 1237.42 2849.74 1246 2839.1 1246L2821.93 1246C2810.26 1246 2801.68 1237.42 2801.68 1226.78Z" fill="#FFFFFF" fill-rule="evenodd"/><path d="M2984 1230.56 2984 1196.58C2984 1192.46 2985.72 1188.68 2988.47 1185.94L3125.32 1049.34C3134.94 1039.73 3128.07 1023.26 3114.66 1023.26L2999.47 1023.26C2990.88 1023.26 2984.34 1016.39 2984.34 1008.16L2984.34 983.101C2984.34 974.864 2991.22 968 2999.47 968L3219.87 968C3228.47 968 3235 974.864 3235 983.101L3235 1017.08C3235 1021.2 3233.28 1024.97 3230.53 1027.72L3093.68 1164.32C3084.06 1173.93 3090.93 1190.4 3104.34 1190.4L3219.53 1190.4C3228.12 1190.4 3234.66 1197.26 3234.66 1205.5L3234.66 1230.9C3234.66 1239.14 3227.78 1246 3219.53 1246L2999.13 1246C2990.88 1246 2984 1239.14 2984 1230.56Z" fill="#FFFFFF" fill-rule="evenodd"/><path d="M3258 1226.09 3258 988.249C3258 976.923 3266.96 968 3278.32 968L3516.68 968C3528.04 968 3537 976.923 3537 988.249L3537 1003.35C3537 1014.68 3528.04 1023.6 3516.68 1023.6L3334.12 1023.6C3322.76 1023.6 3313.8 1032.52 3313.8 1043.85L3313.8 1058.95C3313.8 1070.27 3322.76 1079.2 3334.12 1079.2L3460.88 1079.2C3472.24 1079.2 3481.2 1088.12 3481.2 1099.45L3481.2 1114.55C3481.2 1125.87 3472.24 1134.79 3460.88 1134.79L3334.12 1134.79C3322.76 1134.79 3313.8 1143.72 3313.8 1155.04L3313.8 1170.14C3313.8 1181.47 3322.76 1190.39 3334.12 1190.39L3516.68 1190.39C3528.04 1190.39 3537 1199.32 3537 1210.64L3537 1225.74C3537 1237.07 3528.04 1245.99 3516.68 1245.99L3278.32 1245.99C3266.96 1246.33 3258 1237.07 3258 1226.09Z" fill="#FFFFFF" fill-rule="evenodd"/><path d="M3561 1229.86 3561 984.473C3561 975.207 3568.56 968 3577.49 968L3783.66 968C3799.12 968 3812.18 973.491 3822.83 984.473 3833.83 995.456 3839.33 1008.5 3839.33 1023.6L3839.33 1079.2C3839.33 1094.98 3833.83 1108.02 3822.83 1118.66 3818.37 1123.12 3813.21 1126.56 3808.06 1129.3 3798.44 1134.11 3795.69 1146.81 3803.59 1154.36L3867.16 1217.85C3877.47 1228.14 3870.25 1245.99 3855.48 1245.99L3818.71 1245.99C3814.24 1245.99 3810.12 1244.27 3807.03 1241.18L3673.02 1107.34C3662.71 1097.04 3669.93 1079.2 3684.7 1079.2L3756.17 1079.2C3763.73 1079.2 3770.26 1076.45 3775.76 1071.3 3781.26 1065.81 3784.01 1058.95 3784.01 1051.4 3784.01 1043.85 3781.26 1037.33 3775.76 1031.83 3770.26 1026.34 3763.73 1023.6 3756.17 1023.6L3633.5 1023.6C3624.23 1023.6 3617.01 1031.15 3617.01 1040.07L3617.01 1229.52C3617.01 1238.44 3609.45 1245.99 3600.52 1245.99L3577.84 1245.99C3568.56 1246.33 3561 1238.78 3561 1229.86Z" fill="#FFFFFF" fill-rule="evenodd"/><path d="M2155.51 1224.73 2270.79 994.232C2276.28 983.256 2291.71 983.256 2297.2 994.232L2412.48 1224.73C2417.29 1234.68 2410.08 1246 2399.44 1246L2376.8 1246C2371.31 1246 2366.17 1242.91 2363.76 1237.77L2357.93 1226.11C2355.53 1221.3 2350.38 1217.87 2344.89 1217.87L2224.13 1217.87C2218.64 1217.87 2213.49 1220.96 2211.09 1226.11L2205.26 1237.77C2202.85 1242.57 2197.71 1246 2192.22 1246L2169.57 1246C2157.91 1246 2150.7 1234.34 2155.51 1224.73ZM2315.04 1141.38 2297.2 1105.71C2291.71 1094.73 2276.28 1094.73 2270.79 1105.71L2252.95 1141.38C2248.14 1150.99 2255.35 1162.65 2265.98 1162.65L2301.66 1162.65C2312.64 1162.65 2319.85 1150.99 2315.04 1141.38Z" fill="#FFFFFF" fill-rule="evenodd"/><path d="M1570.51 1224.73 1686.22 994.232C1691.73 983.256 1707.22 983.256 1712.73 994.232L1828.44 1224.73C1833.26 1234.68 1826.37 1246 1815.35 1246L1792.62 1246C1787.11 1246 1781.95 1242.91 1779.54 1237.77L1773.68 1226.11C1771.27 1221.3 1766.11 1217.87 1760.6 1217.87L1639.38 1217.87C1633.88 1217.87 1628.71 1220.96 1626.3 1226.11L1620.45 1237.77C1618.03 1242.57 1612.87 1246 1607.36 1246L1584.63 1246C1572.92 1246 1565.69 1234.34 1570.51 1224.73ZM1730.64 1141.38 1712.73 1105.71C1707.22 1094.73 1691.73 1094.73 1686.22 1105.71L1668.31 1141.38C1663.49 1150.99 1670.38 1162.65 1681.4 1162.65L1717.21 1162.65C1728.57 1162.65 1735.46 1150.99 1730.64 1141.38Z" fill="#FFFFFF" fill-rule="evenodd"/><g clip-path="url(#clip1)"><g clip-path="url(#clip2)"><g clip-path="url(#clip3)"><path d="M1136.53 1574.89 1136.53 1538.05C1136.53 1538.05 1251.79 1547.26 1319.95 1432 1332.84 1404.11 1343.63 1394.37 1346.26 1310.68 1348.89 1227 1357.58 1207.53 1368.37 1184.89 1368.37 1184.89 1344.95 1167.53 1298.63 1155.95 1252.32 1144.37 1186.53 1147.79 1128.89 1183.58L1127.05 1179.89C1127.05 1179.89 1226.79 1136.47 1254.68 1053.32 1254.68 1053.32 1272.58 1063.84 1285.47 1064.37 1285.47 1064.37 1307.58 953.842 1234.42 829.895 1234.42 829.895 1304.16 762.789 1254.68 600.947 1254.68 600.947 1168.89 630.947 1107.05 684.105 1107.05 684.105 1079.68 668.052 1045.21 658.842 1045.21 658.842 1073.11 610.947 1053.11 589.895 1053.11 589.895 1029.16 625.947 968.368 620.421 968.368 620.421 973.105 595.684 959.947 581.21 959.947 581.21 948.895 602.526 922.842 618.842 896.79 635.158 870.474 647 857.842 677 857.842 677 815.211 632.526 718.368 600.421 718.368 600.421 665.211 746.21 737.842 828.579 737.842 828.579 674.947 913.052 686 1065.95 686 1065.95 702.842 1061.47 714.947 1055.95 714.947 1055.95 744.684 1130.68 846 1181.21 846 1181.21 793.105 1265.95 780.211 1356.21 774.158 1404.89 823.632 1409.89 838.368 1390.95L838.368 1575.42C719.684 1579.89 637.842 1589.37 637.842 1600.42 637.842 1615.68 797.316 1628.05 993.895 1628.05 1190.47 1628.05 1349.95 1615.68 1349.95 1600.42 1349.95 1588.84 1262.05 1579.11 1136.53 1574.89ZM1136.53 1391.47C1162.84 1418.84 1197.32 1393.05 1193.89 1365.42 1186.79 1309.37 1166.53 1256.21 1155.74 1231.21 1187.58 1201.74 1226.79 1209.63 1226.79 1209.63 1196.79 1238.05 1197.32 1267 1197.32 1267L1197.05 1267 1197.32 1267.79 1197.32 1267.26C1237.58 1254.63 1257.58 1260.42 1257.58 1260.42 1232.32 1302.26 1252.05 1337.53 1252.05 1337.53 1273.89 1314.37 1294.68 1296.21 1294.68 1296.21 1295.47 1300.68 1296.53 1305.68 1297.32 1310.95 1300.21 1330.68 1302.32 1354.63 1303.37 1369.37 1262.32 1509.37 1136.53 1502.79 1136.53 1502.79L1136.53 1391.47ZM723.368 977C734.158 905.684 769.947 834.895 772.579 829.895L772.842 829.631C717.053 737.789 745.211 656.474 745.211 656.474 822.053 678.842 849.158 726.474 849.158 726.474 874.158 706.474 883.895 703.842 883.895 703.842 896.526 657.263 942.316 650.421 942.316 650.421L939.421 674.368C959.947 644.895 1009.42 647.263 1009.42 647.263 1005.74 649.895 974.684 672.789 974.684 672.789 1068.63 673.842 1114.68 712.526 1122.58 719.631 1122.84 719.895 1123.37 720.421 1123.63 720.684 1169.42 671.737 1227.84 653.842 1227.84 653.842 1257.05 755.158 1198.11 819.105 1198.11 819.105 1232.05 892.263 1245.74 943.316 1251.26 974.895 1256 1002.53 1254.68 1015.42 1254.68 1015.42 1254.68 1015.42 1219.16 1005.16 1184.95 960.421 1150.74 915.421 1086.79 855.421 987.053 855.421 887.579 855.421 844.947 894.895 795.211 952.263 745.474 1009.63 720.211 1015.68 720.211 1015.68 720.211 1003.05 721.526 989.895 723.368 977ZM1016.53 906.737C1069.16 975.158 1134.95 955.684 1134.95 955.684 1135.74 962.526 1136.26 969.105 1136.26 976.21 1136.26 1059.11 1069.16 1126.21 986.263 1126.21 903.368 1126.21 836.263 1059.11 836.263 976.21 836.263 968.579 836.789 961.21 837.842 954.105 871.526 918.842 898.105 905.684 913.105 900.684 922.053 897.526 927.053 897.526 927.053 897.526 942.316 930.158 966.79 945.947 990.211 953.316 1024.16 963.842 1056.26 956.474 1056.26 956.474 1027.05 946.474 1017.05 909.105 1016.53 906.737ZM750.474 1041.47C767.579 1026.74 784.684 1012.26 802.053 997.263 807.053 1057 838.105 1100.95 889.684 1132.79 882.053 1139.63 875.737 1145.16 869.421 1150.68 811.263 1122.26 769.684 1084.11 750.474 1041.47ZM1000.47 1572.53C998.368 1572.53 996 1572.53 993.895 1572.53 987.316 1572.53 981 1572.53 974.421 1572.53L974.421 1537.79C974.421 1537.79 974.684 1524.11 987.579 1524.11 1000.21 1524.11 1000.74 1537.53 1000.74 1537.53L1000.74 1572.53ZM1099.95 1256.21 1099.95 1539.89 1038.89 1539.89C1038.89 1488.32 994.158 1487 988.632 1487L988.105 1487C987.842 1487 937.316 1485.42 937.316 1539.89L876.263 1539.89 876.263 1256.21C876.263 1256.21 873.105 1175.42 927.842 1152.79 927.842 1152.79 949.421 1164.89 988.105 1164.89 1000.47 1164.89 1011.26 1163.58 1019.95 1162 1038.37 1158.58 1048.37 1153.05 1048.37 1153.05 1103.11 1175.42 1099.95 1256.21 1099.95 1256.21ZM1084.16 1133.05C1135.74 1100.95 1166.79 1057 1171.79 997.526 1189.16 1012.26 1206.26 1027 1223.37 1041.74 1204.16 1084.11 1162.58 1122.26 1104.42 1151.21 1098.11 1145.42 1091.79 1139.63 1084.16 1133.05Z" fill="#FFFFFF"/><path d="M988.105 1171.21C942.579 1171.21 905.474 1208.32 905.474 1253.84L905.474 1362.53C905.474 1408.05 942.579 1445.16 988.105 1445.16 1033.63 1445.16 1070.74 1408.05 1070.74 1362.53L1070.74 1253.84C1070.74 1208.32 1033.63 1171.21 988.105 1171.21Z" fill="#FFFFFF"/><path d="M1018.11 911.474 1019.95 915.158C1020.47 914.631 1021 914.105 1021.79 913.316 1021 912.526 1020.21 911.474 1019.42 910.684 1018.89 910.947 1018.37 911.21 1018.11 911.474Z" fill="#FFFFFF"/><path d="M938.632 992C938.632 1003.48 929.324 1012.79 917.842 1012.79 906.36 1012.79 897.053 1003.48 897.053 992 897.053 980.518 906.36 971.21 917.842 971.21 929.324 971.21 938.632 980.518 938.632 992Z" fill="#FFFFFF"/><path d="M1076.53 992C1076.53 1003.48 1067.22 1012.79 1055.74 1012.79 1044.26 1012.79 1034.95 1003.48 1034.95 992 1034.95 980.518 1044.26 971.21 1055.74 971.21 1067.22 971.21 1076.53 980.518 1076.53 992Z" fill="#FFFFFF"/><path d="M999.158 1038.58 973.895 1038.58C969.947 1038.58 966.79 1041.74 966.79 1045.68 966.79 1049.63 969.947 1052.79 973.895 1052.79L999.158 1052.79C1003.11 1052.79 1006.26 1049.63 1006.26 1045.68 1006.26 1041.74 1003.11 1038.58 999.158 1038.58Z" fill="#FFFFFF"/><path d="M904.684 783.316C904.684 794.797 895.376 804.105 883.895 804.105 872.413 804.105 863.105 794.797 863.105 783.316 863.105 771.834 872.413 762.526 883.895 762.526 895.376 762.526 904.684 771.834 904.684 783.316Z" fill="#FFFFFF"/><path d="M1109.42 783.316C1109.42 794.797 1100.11 804.105 1088.63 804.105 1077.15 804.105 1067.84 794.797 1067.84 783.316 1067.84 771.834 1077.15 762.526 1088.63 762.526 1100.11 762.526 1109.42 771.834 1109.42 783.316Z" fill="#FFFFFF"/><path d="M1022.84 797C1022.84 814.004 1006.94 827.789 987.316 827.789 967.695 827.789 951.789 814.004 951.789 797 951.789 779.995 967.695 766.21 987.316 766.21 1006.94 766.21 1022.84 779.995 1022.84 797Z" fill="#FFFFFF"/><path d="M1200.74 706.474C1174.95 718.579 1157.84 740.684 1151.79 749.368 1164.95 763.842 1174.42 776.21 1181.26 786.474 1201.79 745.684 1200.74 706.474 1200.74 706.474Z" fill="#FFFFFF"/><path d="M822.053 751.21C817.842 744.631 799.947 719.368 771.526 705.947 771.526 705.947 770.474 747.526 793.105 789.895 803.105 773.842 813.105 761.21 822.053 751.21Z" fill="#FFFFFF"/></g></g></g></g></svg>