<?xml version="1.0" encoding="utf-8"?>
<!-- Generator: Adobe Illustrator 27.5.0, SVG Export Plug-In . SVG Version: 6.00 Build 0)  -->
<svg version="1.1" id="Capa_1" xmlns="http://www.w3.org/2000/svg" xmlns:xlink="http://www.w3.org/1999/xlink" x="0px" y="0px"
	 viewBox="0 0 659 621" style="enable-background:new 0 0 659 621;" xml:space="preserve">
<style type="text/css">
	.st0{fill:#FFFFFF;}
</style>
<g>
	<g>
		<path class="st0" d="M84.3,536.3v-65.5c0-3.3,2.7-6,6-6h7c1.6,0,3.1,0.6,4.2,1.8l42.2,42.2c3.8,3.8,10.2,1.1,10.2-4.2v-33.8
			c0-3.3,2.7-6,6-6h3.5c3.3,0,6,2.7,6,6v65.5c0,3.3-2.7,6-6,6h-7c-1.6,0-3.1-0.6-4.2-1.8L110,498.3c-3.8-3.8-10.2-1.1-10.2,4.2v33.8
			c0,3.3-2.7,6-6,6h-3.5C87,542.2,84.3,539.6,84.3,536.3z"/>
		<path class="st0" d="M253.2,536.2v-65.4c0-3.3,2.7-6,6-6h3.4c3.3,0,6,2.7,6,6v49.9c0,3.3,2.7,6,6,6h49.9c3.3,0,6,2.7,6,6v3.4
			c0,3.3-2.7,6-6,6h-65.4C255.9,542.2,253.2,539.5,253.2,536.2z"/>
		<path class="st0" d="M352.2,536.9v-31.2c0-1.4-0.6-2.8-1.6-3.8l-28-28c-3.4-3.4-1-9.1,3.8-9.1h8.1c1.4,0,2.8,0.6,3.8,1.6
			l17.9,17.9c2.1,2.1,5.5,2.1,7.6,0l17.9-17.9c1-1,2.4-1.6,3.8-1.6h8.1c4.8,0,7.1,5.8,3.8,9.1l-28,28c-1,1-1.6,2.4-1.6,3.8v31.2
			c0,3-2.4,5.3-5.3,5.3h-4.8C354.6,542.2,352.2,539.9,352.2,536.9z"/>
		<path class="st0" d="M402.8,538v-9.5c0-1.1,0.4-2.2,1.2-3l38-38c2.7-2.7,0.8-7.2-3-7.2h-32c-2.3,0-4.2-1.9-4.2-4.2v-7
			c0-2.3,1.9-4.2,4.2-4.2h61.2c2.3,0,4.2,1.9,4.2,4.2v9.5c0,1.1-0.4,2.2-1.2,3l-38,38c-2.7,2.7-0.8,7.2,3,7.2h32
			c2.3,0,4.2,1.9,4.2,4.2v7c0,2.3-1.9,4.2-4.2,4.2H407C404.7,542.2,402.8,540.4,402.8,538z"/>
		<path class="st0" d="M479.1,536.6v-66.2c0-3.1,2.5-5.6,5.6-5.6h66.2c3.1,0,5.6,2.5,5.6,5.6v4.2c0,3.1-2.5,5.6-5.6,5.6h-50.7
			c-3.1,0-5.6,2.5-5.6,5.6v4.2c0,3.1,2.5,5.6,5.6,5.6h35.2c3.1,0,5.6,2.5,5.6,5.6v4.2c0,3.1-2.5,5.6-5.6,5.6h-35.2
			c-3.1,0-5.6,2.5-5.6,5.6v4.2c0,3.1,2.5,5.6,5.6,5.6h50.7c3.1,0,5.6,2.5,5.6,5.6v4.2c0,3.1-2.5,5.6-5.6,5.6h-66.2
			C481.6,542.2,479.1,539.7,479.1,536.6z"/>
		<path class="st0" d="M563.1,537.7v-68.3c0-2.5,2.1-4.6,4.6-4.6H625c4.3,0,7.9,1.5,10.9,4.6c3.1,3.1,4.6,6.7,4.6,10.9v15.5
			c0,4.4-1.5,8-4.6,11c-1.3,1.2-2.7,2.2-4.1,3c-2.7,1.3-3.4,4.9-1.3,7l17.7,17.7c2.9,2.9,0.8,7.8-3.2,7.8h-10.3
			c-1.2,0-2.4-0.5-3.2-1.3l-37.3-37.3c-2.9-2.9-0.8-7.8,3.2-7.8h19.9c2.1,0,3.9-0.7,5.4-2.2c1.5-1.5,2.3-3.4,2.3-5.6
			c0-2.1-0.8-3.9-2.3-5.4c-1.5-1.5-3.3-2.3-5.4-2.3h-34.1c-2.5,0-4.6,2.1-4.6,4.6v52.8c0,2.5-2.1,4.6-4.6,4.6h-6.3
			C565.1,542.2,563.1,540.2,563.1,537.7z"/>
		<path class="st0" d="M172.4,536.3l32.1-64.2c1.5-3,5.8-3,7.3,0l32.1,64.2c1.4,2.7-0.6,5.9-3.7,5.9H234c-1.6,0-3-0.9-3.7-2.3
			l-1.6-3.2c-0.7-1.4-2.1-2.3-3.7-2.3h-33.7c-1.6,0-3,0.9-3.7,2.3l-1.6,3.2c-0.7,1.4-2.1,2.3-3.7,2.3h-6.3
			C173.1,542.2,171.1,539,172.4,536.3z M216.8,513.1l-5-10c-1.5-3-5.8-3-7.3,0l-5,10c-1.4,2.7,0.6,5.9,3.7,5.9h10
			C216.2,519,218.2,515.8,216.8,513.1z"/>
		<path class="st0" d="M9.9,536.3L42,472.1c1.5-3,5.8-3,7.3,0l32.1,64.2c1.4,2.7-0.6,5.9-3.7,5.9h-6.3c-1.6,0-3-0.9-3.7-2.3
			l-1.6-3.2c-0.7-1.4-2.1-2.3-3.7-2.3H28.8c-1.6,0-3,0.9-3.7,2.3l-1.6,3.2c-0.7,1.4-2.1,2.3-3.7,2.3h-6.3
			C10.5,542.2,8.5,539,9.9,536.3z M54.3,513.1l-5-10c-1.5-3-5.8-3-7.3,0l-5,10c-1.4,2.7,0.6,5.9,3.7,5.9h10
			C53.7,519,55.7,515.8,54.3,513.1z"/>
	</g>
	<g>
		<g>
			<path class="st0" d="M101.3,605.3l2.3-5.1c2.8,2.3,7.3,3.9,11.7,3.9c5.5,0,7.8-2,7.8-4.6c0-7.6-21-2.6-21-15.8
				c0-5.7,4.6-10.6,14.3-10.6c4.2,0,8.7,1.1,11.8,3.1l-2.1,5.1c-3.2-1.9-6.7-2.8-9.8-2.8c-5.5,0-7.7,2.1-7.7,4.8
				c0,7.5,21,2.6,21,15.6c0,5.7-4.6,10.5-14.3,10.5C109.8,609.6,104.3,607.8,101.3,605.3z"/>
			<path class="st0" d="M188,603.5v5.5h-26.6v-35.4h25.9v5.5H168v9.2h17.1v5.4H168v9.8H188z"/>
			<path class="st0" d="M243.8,609.1l-7.2-10.4c-0.5,0.1-0.9,0.1-1.4,0.1h-8v10.3h-6.6v-35.4h14.6c9.3,0,15.1,4.8,15.1,12.6
				c0,5.4-2.7,9.3-7.5,11.2l8.1,11.6H243.8z M234.9,579.2h-7.7v14.1h7.7c5.8,0,8.8-2.6,8.8-7.1C243.7,581.8,240.7,579.2,234.9,579.2
				z"/>
			<path class="st0" d="M315.3,573.6l-15.4,35.4h-6.5l-15.5-35.4h7.1l11.8,27.3l11.9-27.3H315.3z"/>
			<path class="st0" d="M344.4,573.6h6.6v35.4h-6.6V573.6z"/>
			<path class="st0" d="M383.3,591.3c0-10.6,8.1-18.2,19-18.2c5.8,0,10.7,2.1,14,5.9l-4.2,4c-2.6-2.8-5.8-4.1-9.5-4.1
				c-7.3,0-12.7,5.2-12.7,12.4s5.3,12.4,12.7,12.4c3.7,0,6.9-1.4,9.5-4.2l4.2,4c-3.3,3.8-8.2,5.9-14.1,5.9
				C391.4,609.6,383.3,601.9,383.3,591.3z"/>
			<path class="st0" d="M474.4,603.5v5.5h-26.6v-35.4h25.9v5.5h-19.3v9.2h17.1v5.4h-17.1v9.8H474.4z"/>
			<path class="st0" d="M504.1,605.3l2.3-5.1c2.8,2.3,7.3,3.9,11.7,3.9c5.5,0,7.8-2,7.8-4.6c0-7.6-21-2.6-21-15.8
				c0-5.7,4.6-10.6,14.3-10.6c4.2,0,8.7,1.1,11.8,3.1l-2.1,5.1c-3.2-1.9-6.7-2.8-9.8-2.8c-5.5,0-7.7,2.1-7.7,4.8
				c0,7.5,21,2.6,21,15.6c0,5.7-4.6,10.5-14.3,10.5C512.5,609.6,507,607.8,504.1,605.3z"/>
		</g>
	</g>
	<g>
		<g>
			<g>
				<path class="st0" d="M290.1,71.3L365,11.4h-49.6c-23.3,0-39.4,23.4-31,45.2L290.1,71.3z"/>
				<path class="st0" d="M293.3,79.6l6.5,17l51.4,22.3c2.2-3.6,5.6-6.6,9.8-8.3c3-1.2,6.2-1.6,9.2-1.3L404,31.3
					c-4.7-10.6-14.5-18-25.9-19.5L293.3,79.6z"/>
				<path class="st0" d="M200.3,337.9c-0.7,0-1.3-0.1-2-0.2l-30.6,71.5h28l57.1-43.7l5.4-16.3l-45.7-18.6
					C210.1,335,205.5,337.9,200.3,337.9z"/>
				<path class="st0" d="M362.7,302.6c2.7,0,5.3,0.7,7.5,1.8l102-102L409.4,44.7l-29.5,68c3.2,2.2,5.8,5.3,7.3,9.2
					c4.1,10.4-1,22.1-11.4,26.2c-3.9,1.5-7.9,1.8-11.7,1l-23.3,53.7l15.1,39.1c8.4,21.7-7.6,45.2-31,45.2h0
					c-14.1,0-26.7,8.9-31.3,22.2l-4.4,12.5c-6.4,18.2,4,37.1,21.1,42.6l37.4-37.4c-1.1-2.3-1.8-4.8-1.8-7.5
					C346,310.1,353.5,302.6,362.7,302.6z"/>
				<path class="st0" d="M349.7,136.7c-1-2.6-1.5-5.4-1.4-8L305,110l30.6,79.2l19.4-44.8C352.7,142.3,350.9,139.8,349.7,136.7z"/>
				<path class="st0" d="M205.2,409.3h17.8c9.3,0,17.5-6,20.4-14.8l6.3-19.2L205.2,409.3z"/>
				<path class="st0" d="M476.2,368.2c-2.2,1-4.6,1.3-7.1,1c-6.9-1.1-11.6-7.5-10.6-14.4c0.4-2.5,1.5-4.7,3.1-6.5l-21-28.7l5.2-3.8
					l21.1,28.9c1.9-0.6,3.9-0.9,6-0.5c6.9,1.1,11.6,7.5,10.6,14.4c-0.3,2.1-1.2,4-2.3,5.6l32.3,44.2c19.1-4.5,30.9-25.3,23.1-44.6
					l-60.9-152.9L376.6,310c1.8,2.7,2.8,5.9,2.8,9.3c0,9.2-7.5,16.7-16.7,16.7c-3.4,0-6.6-1-9.3-2.8l-32.6,32.6h60.4
					c13.7,0,26,8.4,31,21.2l0.4,1c4.9,12.8,17.2,21.2,31,21.2h62.3c0.1,0,0.2,0,0.4,0L476.2,368.2z"/>
				<path class="st0" d="M192.4,335.5c-3.7-2.5-6.1-6.7-6.1-11.5c0-7.7,6.2-13.9,13.9-13.9c1,0,1.9,0.1,2.9,0.3l46.2-108.1l5.8,2.5
					l-46.3,108.3c3.2,2.5,5.3,6.5,5.3,10.9c0,0.4,0,0.8-0.1,1.2l45.9,18.7l49-149.3c1.5-4.6,1.4-9.6-0.3-14.2l-28.9-77.6l-29.1,29
					c0.9,1.6,1.5,3.5,1.5,5.5c0,6.1-5,11.1-11.1,11.1c-2,0-3.9-0.6-5.6-1.5l-42.9,42.7l-71.4,190.8c-5.3,14.1,5.1,29,20.1,29h19.4
					L192.4,335.5z"/>
				<path class="st0" d="M230.1,137.2c0-1.2,0.2-2.3,0.5-3.4l-14.9-6L198,175.3l33.3-33.1C230.5,140.7,230.1,139,230.1,137.2z"/>
				<path class="st0" d="M233.9,128.9c1.9-1.7,4.5-2.8,7.3-2.8c1.8,0,3.5,0.4,5,1.2l31.3-31.1l-4.8-12.8c-6.9-18.7-33.3-18.7-40.3,0
					l-14.6,39L233.9,128.9z"/>
			</g>
		</g>
	</g>
	<g>
		<circle class="st0" cx="199.8" cy="324.6" r="7.6"/>
		<circle class="st0" cx="362.7" cy="319" r="7.6"/>
		<circle class="st0" cx="367.8" cy="128.8" r="10.8"/>
		<circle class="st0" cx="240.4" cy="136.9" r="5.2"/>
		<circle class="st0" cx="470.5" cy="356.7" r="5.4"/>
	</g>
</g>
</svg>
