<?xml version="1.0" encoding="utf-8"?>
<!-- Generator: Adobe Illustrator 27.5.0, SVG Export Plug-In . SVG Version: 6.00 Build 0)  -->
<svg version="1.1" id="Capa_1" xmlns="http://www.w3.org/2000/svg" xmlns:xlink="http://www.w3.org/1999/xlink" x="0px" y="0px"
	 viewBox="0 0 1000 287" style="enable-background:new 0 0 1000 287;" xml:space="preserve">
<style type="text/css">
	.st0{fill:url(#SVGID_1_);}
	.st1{fill:url(#SVGID_00000041992108071401847000000004228668308579293067_);}
	.st2{fill:url(#SVGID_00000041992032760127628390000012324639141977691576_);}
	.st3{fill:url(#SVGID_00000087412674352554897930000010508910068216401544_);}
	.st4{fill:url(#SVGID_00000126291654135723770520000001640723427630645425_);}
	.st5{fill:url(#SVGID_00000112606523968385699690000011204976357181181097_);}
	.st6{fill:url(#SVGID_00000051369057492967168000000000509865878208402861_);}
	.st7{fill:url(#SVGID_00000181803850321554194480000001599733309933533886_);}
	.st8{fill:url(#SVGID_00000059989838033420376100000017551419606956787082_);}
	.st9{fill:url(#SVGID_00000062190046453953327350000012790529215406861218_);}
	.st10{fill:#0093A5;}
	.st11{fill:#004E69;}
	.st12{fill:#008094;}
	.st13{fill:#003553;}
	.st14{fill:url(#SVGID_00000168111427494326550690000001992519615369698984_);}
	.st15{fill:url(#SVGID_00000173852721691129092600000010226664876927839904_);}
	.st16{fill:url(#SVGID_00000136399798222498135940000013438262468908671379_);}
	.st17{fill:url(#SVGID_00000132796040435256341850000005802571716595344261_);}
	.st18{fill:url(#SVGID_00000133493447419347240840000008272187195449627580_);}
	.st19{fill:url(#SVGID_00000076571146366365401100000006818579701935256756_);}
	.st20{fill:url(#SVGID_00000183937229004687501900000004440986394750750095_);}
	.st21{fill:url(#SVGID_00000025426932256460615940000004835176743010932925_);}
	.st22{enable-background:new    ;}
	.st23{fill:#002F50;}
</style>
<g>
	<g>
		<g>
			
				<linearGradient id="SVGID_1_" gradientUnits="userSpaceOnUse" x1="29.0237" y1="260.57" x2="270.8997" y2="260.57" gradientTransform="matrix(1 0 0 -1 0 288)">
				<stop  offset="1.276741e-03" style="stop-color:#00C1CD"/>
				<stop  offset="0.1296" style="stop-color:#00A1B1"/>
				<stop  offset="0.3191" style="stop-color:#00788E"/>
				<stop  offset="0.5051" style="stop-color:#005872"/>
				<stop  offset="0.6838" style="stop-color:#00415E"/>
				<stop  offset="0.8523" style="stop-color:#003452"/>
				<stop  offset="1" style="stop-color:#002F4E"/>
			</linearGradient>
			<path class="st0" d="M124.5,47.4l50.1-40h-33.2c-15.6,0-26.3,15.7-20.7,30.2L124.5,47.4z"/>
			
				<linearGradient id="SVGID_00000080887867923508849070000016382886287898590595_" gradientUnits="userSpaceOnUse" x1="29.0237" y1="244.56" x2="270.8997" y2="244.56" gradientTransform="matrix(1 0 0 -1 0 288)">
				<stop  offset="1.276741e-03" style="stop-color:#00C1CD"/>
				<stop  offset="0.1296" style="stop-color:#00A1B1"/>
				<stop  offset="0.3191" style="stop-color:#00788E"/>
				<stop  offset="0.5051" style="stop-color:#005872"/>
				<stop  offset="0.6838" style="stop-color:#00415E"/>
				<stop  offset="0.8523" style="stop-color:#003452"/>
				<stop  offset="1" style="stop-color:#002F4E"/>
			</linearGradient>
			<path style="fill:url(#SVGID_00000080887867923508849070000016382886287898590595_);" d="M126.7,53l4.4,11.3l34.4,14.9
				c1.5-2.4,3.7-4.4,6.6-5.6c2-0.8,4.1-1.1,6.2-0.9l22.6-52.1c-3.1-7.1-9.7-12-17.3-13.1L126.7,53z"/>
			
				<linearGradient id="SVGID_00000116954697126472143390000000337105727090169002_" gradientUnits="userSpaceOnUse" x1="29.0237" y1="40.715" x2="270.8997" y2="40.715" gradientTransform="matrix(1 0 0 -1 0 288)">
				<stop  offset="1.276741e-03" style="stop-color:#00C1CD"/>
				<stop  offset="0.1296" style="stop-color:#00A1B1"/>
				<stop  offset="0.3191" style="stop-color:#00788E"/>
				<stop  offset="0.5051" style="stop-color:#005872"/>
				<stop  offset="0.6838" style="stop-color:#00415E"/>
				<stop  offset="0.8523" style="stop-color:#003452"/>
				<stop  offset="1" style="stop-color:#002F4E"/>
			</linearGradient>
			<path style="fill:url(#SVGID_00000116954697126472143390000000337105727090169002_);" d="M64.4,225.8c-0.5,0-0.9,0-1.3-0.1
				l-20.5,47.9h18.7l38.2-29.2l3.6-10.9L72.6,221C71,223.9,67.9,225.8,64.4,225.8z"/>
			
				<linearGradient id="SVGID_00000004512538671270987000000004354573187478180538_" gradientUnits="userSpaceOnUse" x1="29.0237" y1="151.47" x2="270.8997" y2="151.47" gradientTransform="matrix(1 0 0 -1 0 288)">
				<stop  offset="1.276741e-03" style="stop-color:#00C1CD"/>
				<stop  offset="0.1296" style="stop-color:#00A1B1"/>
				<stop  offset="0.3191" style="stop-color:#00788E"/>
				<stop  offset="0.5051" style="stop-color:#005872"/>
				<stop  offset="0.6838" style="stop-color:#00415E"/>
				<stop  offset="0.8523" style="stop-color:#003452"/>
				<stop  offset="1" style="stop-color:#002F4E"/>
			</linearGradient>
			<path style="fill:url(#SVGID_00000004512538671270987000000004354573187478180538_);" d="M173.1,202.2c1.8,0,3.5,0.4,5,1.2
				l68.3-68.3L204.4,29.6l-19.7,45.5c2.1,1.5,3.9,3.6,4.9,6.2c2.7,6.9-0.7,14.8-7.6,17.5c-2.6,1-5.3,1.2-7.8,0.6l-15.6,35.9
				l10.1,26.1c5.6,14.6-5.1,30.2-20.7,30.2l0,0c-9.4,0-17.8,6-21,14.9l-2.9,8.3c-4.2,12.2,2.7,24.8,14.1,28.5l25-25
				c-0.8-1.5-1.2-3.2-1.2-5C161.9,207.2,166.9,202.2,173.1,202.2z"/>
			
				<linearGradient id="SVGID_00000013903616148570485270000017293793399189543352_" gradientUnits="userSpaceOnUse" x1="29.0237" y1="188.19" x2="270.8997" y2="188.19" gradientTransform="matrix(1 0 0 -1 0 288)">
				<stop  offset="1.276741e-03" style="stop-color:#00C1CD"/>
				<stop  offset="0.1296" style="stop-color:#00A1B1"/>
				<stop  offset="0.3191" style="stop-color:#00788E"/>
				<stop  offset="0.5051" style="stop-color:#005872"/>
				<stop  offset="0.6838" style="stop-color:#00415E"/>
				<stop  offset="0.8523" style="stop-color:#003452"/>
				<stop  offset="1" style="stop-color:#002F4E"/>
			</linearGradient>
			<path style="fill:url(#SVGID_00000013903616148570485270000017293793399189543352_);" d="M164.4,91.2c-0.7-1.8-1-3.6-0.9-5.4
				l-28.9-12.5l20.5,53l13-29.9C166.4,95,165.2,93.3,164.4,91.2z"/>
			
				<linearGradient id="SVGID_00000146490531885007476250000014586004733460100273_" gradientUnits="userSpaceOnUse" x1="29.0237" y1="25.795" x2="270.8997" y2="25.795" gradientTransform="matrix(1 0 0 -1 0 288)">
				<stop  offset="1.276741e-03" style="stop-color:#00C1CD"/>
				<stop  offset="0.1296" style="stop-color:#00A1B1"/>
				<stop  offset="0.3191" style="stop-color:#00788E"/>
				<stop  offset="0.5051" style="stop-color:#005872"/>
				<stop  offset="0.6838" style="stop-color:#00415E"/>
				<stop  offset="0.8523" style="stop-color:#003452"/>
				<stop  offset="1" style="stop-color:#002F4E"/>
			</linearGradient>
			<path style="fill:url(#SVGID_00000146490531885007476250000014586004733460100273_);" d="M67.7,273.6h11.9c6.2,0,11.7-4,13.7-9.9
				l4.2-12.9L67.7,273.6z"/>
			
				<linearGradient id="SVGID_00000053546248608837037110000008734118385064002229_" gradientUnits="userSpaceOnUse" x1="29.0237" y1="80.77" x2="270.8997" y2="80.77" gradientTransform="matrix(1 0 0 -1 0 288)">
				<stop  offset="1.276741e-03" style="stop-color:#00C1CD"/>
				<stop  offset="0.1296" style="stop-color:#00A1B1"/>
				<stop  offset="0.3191" style="stop-color:#00788E"/>
				<stop  offset="0.5051" style="stop-color:#005872"/>
				<stop  offset="0.6838" style="stop-color:#00415E"/>
				<stop  offset="0.8523" style="stop-color:#003452"/>
				<stop  offset="1" style="stop-color:#002F4E"/>
			</linearGradient>
			<path style="fill:url(#SVGID_00000053546248608837037110000008734118385064002229_);" d="M249,246.1c-1.4,0.6-3.1,0.9-4.8,0.6
				c-4.6-0.7-7.8-5-7.1-9.7c0.3-1.7,1-3.2,2.1-4.3l-14-19.2l3.5-2.5l14.1,19.4c1.2-0.4,2.6-0.6,4-0.4c4.6,0.7,7.8,5,7.1,9.7
				c-0.2,1.4-0.8,2.7-1.6,3.7L274,273c12.8-3,20.6-16.9,15.5-29.8l-40.8-102.3l-66.3,66.3c1.2,1.8,1.9,3.9,1.9,6.2
				c0,6.2-5,11.2-11.2,11.2c-2.3,0-4.4-0.7-6.2-1.9l-21.8,21.8h40.4c9.2,0,17.4,5.6,20.7,14.2l0.3,0.7c3.3,8.6,11.5,14.2,20.7,14.2
				h41.7c0.1,0,0.2,0,0.2,0L249,246.1z"/>
			
				<linearGradient id="SVGID_00000124876047373094330470000000590906000429084296_" gradientUnits="userSpaceOnUse" x1="29.0237" y1="116.96" x2="270.8997" y2="116.96" gradientTransform="matrix(1 0 0 -1 0 288)">
				<stop  offset="1.276741e-03" style="stop-color:#00C1CD"/>
				<stop  offset="0.1296" style="stop-color:#00A1B1"/>
				<stop  offset="0.3191" style="stop-color:#00788E"/>
				<stop  offset="0.5051" style="stop-color:#005872"/>
				<stop  offset="0.6838" style="stop-color:#00415E"/>
				<stop  offset="0.8523" style="stop-color:#003452"/>
				<stop  offset="1" style="stop-color:#002F4E"/>
			</linearGradient>
			<path style="fill:url(#SVGID_00000124876047373094330470000000590906000429084296_);" d="M59.2,224.2c-2.5-1.7-4.1-4.5-4.1-7.7
				c0-5.1,4.2-9.3,9.3-9.3c0.7,0,1.3,0.1,1.9,0.2l30.9-72.3l3.9,1.6l-30.9,72.4c2.2,1.7,3.6,4.3,3.6,7.3c0,0.3,0,0.5,0,0.8
				l30.7,12.5l32.8-99.8c1-3.1,0.9-6.4-0.2-9.5l-19.3-52L98.2,87.9c0.6,1.1,1,2.3,1,3.7c0,4.1-3.3,7.4-7.4,7.4c-1.4,0-2.6-0.4-3.7-1
				l-28.7,28.5L11.6,254.1c-3.5,9.4,3.4,19.4,13.5,19.4h13L59.2,224.2z"/>
			
				<linearGradient id="SVGID_00000171716366698768390730000005951677796878431641_" gradientUnits="userSpaceOnUse" x1="29.0237" y1="186.83" x2="270.8997" y2="186.83" gradientTransform="matrix(1 0 0 -1 0 288)">
				<stop  offset="1.276741e-03" style="stop-color:#00C1CD"/>
				<stop  offset="0.1296" style="stop-color:#00A1B1"/>
				<stop  offset="0.3191" style="stop-color:#00788E"/>
				<stop  offset="0.5051" style="stop-color:#005872"/>
				<stop  offset="0.6838" style="stop-color:#00415E"/>
				<stop  offset="0.8523" style="stop-color:#003452"/>
				<stop  offset="1" style="stop-color:#002F4E"/>
			</linearGradient>
			<path style="fill:url(#SVGID_00000171716366698768390730000005951677796878431641_);" d="M84.4,91.6c0-0.8,0.1-1.6,0.4-2.3
				l-9.9-4l-11.9,31.8l22.3-22.2C84.7,93.9,84.4,92.8,84.4,91.6z"/>
			
				<linearGradient id="SVGID_00000088128751471081476910000004498891998013568667_" gradientUnits="userSpaceOnUse" x1="29.0237" y1="221.8756" x2="270.8997" y2="221.8756" gradientTransform="matrix(1 0 0 -1 0 288)">
				<stop  offset="1.276741e-03" style="stop-color:#00C1CD"/>
				<stop  offset="0.1296" style="stop-color:#00A1B1"/>
				<stop  offset="0.3191" style="stop-color:#00788E"/>
				<stop  offset="0.5051" style="stop-color:#005872"/>
				<stop  offset="0.6838" style="stop-color:#00415E"/>
				<stop  offset="0.8523" style="stop-color:#003452"/>
				<stop  offset="1" style="stop-color:#002F4E"/>
			</linearGradient>
			<path style="fill:url(#SVGID_00000088128751471081476910000004498891998013568667_);" d="M86.9,86c1.3-1.2,3-1.8,4.9-1.8
				c1.2,0,2.3,0.3,3.4,0.8l20.9-20.8l-3.2-8.6c-4.6-12.5-22.3-12.5-27,0l-9.8,26.1L86.9,86z"/>
		</g>
	</g>
</g>
<g>
	<circle class="st10" cx="64.1" cy="216.9" r="5.1"/>
	<circle class="st11" cx="173.1" cy="213.2" r="5.1"/>
	<circle class="st11" cx="176.5" cy="85.9" r="7.2"/>
	<circle class="st12" cx="91.3" cy="91.3" r="3.5"/>
	<circle class="st13" cx="245.2" cy="238.4" r="3.6"/>
</g>
<g>
	
		<linearGradient id="SVGID_00000138542145984967794920000000188506070986613391_" gradientUnits="userSpaceOnUse" x1="394.76" y1="182.455" x2="483.92" y2="182.455" gradientTransform="matrix(1 0 0 -1 0 288)">
		<stop  offset="1.276741e-03" style="stop-color:#606060"/>
		<stop  offset="0.2563" style="stop-color:#434343"/>
		<stop  offset="0.5241" style="stop-color:#2C2C2C"/>
		<stop  offset="0.7777" style="stop-color:#1F1F1F"/>
		<stop  offset="1" style="stop-color:#1A1A1A"/>
	</linearGradient>
	<path style="fill:url(#SVGID_00000138542145984967794920000000188506070986613391_);" d="M394.8,139.8V71.3c0-3.5,2.8-6.3,6.3-6.3
		h7.3c1.7,0,3.3,0.7,4.4,1.8l44.2,44.2c4,3.9,10.7,1.2,10.7-4.4V71.3c0-3.5,2.8-6.3,6.3-6.3h3.7c3.5,0,6.3,2.8,6.3,6.3v68.5
		c0,3.5-2.8,6.3-6.3,6.3h-7.3c-1.7,0-3.3-0.7-4.4-1.8L421.7,100c-4-3.9-10.7-1.2-10.7,4.4v35.3c0,3.5-2.8,6.3-6.3,6.3H401
		C397.6,146.1,394.8,143.3,394.8,139.8z"/>
	
		<linearGradient id="SVGID_00000070813706134188415140000015482677554260396982_" gradientUnits="userSpaceOnUse" x1="571.52" y1="182.455" x2="652.5701" y2="182.455" gradientTransform="matrix(1 0 0 -1 0 288)">
		<stop  offset="1.276741e-03" style="stop-color:#606060"/>
		<stop  offset="0.2563" style="stop-color:#434343"/>
		<stop  offset="0.5241" style="stop-color:#2C2C2C"/>
		<stop  offset="0.7777" style="stop-color:#1F1F1F"/>
		<stop  offset="1" style="stop-color:#1A1A1A"/>
	</linearGradient>
	<path style="fill:url(#SVGID_00000070813706134188415140000015482677554260396982_);" d="M571.5,139.8V71.3c0-3.5,2.8-6.3,6.3-6.3
		h3.6c3.5,0,6.3,2.8,6.3,6.3v52.2c0,3.5,2.8,6.3,6.3,6.3h52.2c3.5,0,6.3,2.8,6.3,6.3v3.6c0,3.5-2.8,6.3-6.3,6.3h-68.4
		C574.3,146.1,571.5,143.2,571.5,139.8z"/>
	
		<linearGradient id="SVGID_00000088813395797650070550000001008918194499718037_" gradientUnits="userSpaceOnUse" x1="642.4615" y1="182.455" x2="723.9128" y2="182.455" gradientTransform="matrix(1 0 0 -1 0 288)">
		<stop  offset="1.276741e-03" style="stop-color:#606060"/>
		<stop  offset="0.2563" style="stop-color:#434343"/>
		<stop  offset="0.5241" style="stop-color:#2C2C2C"/>
		<stop  offset="0.7777" style="stop-color:#1F1F1F"/>
		<stop  offset="1" style="stop-color:#1A1A1A"/>
	</linearGradient>
	<path style="fill:url(#SVGID_00000088813395797650070550000001008918194499718037_);" d="M675.1,140.5v-32.6c0-1.5-0.6-2.9-1.6-3.9
		l-29.3-29.3c-3.5-3.5-1-9.6,4-9.6h8.5c1.5,0,2.9,0.6,4,1.6l18.7,18.7c2.2,2.2,5.7,2.2,7.9,0l18.7-18.7c1-1.1,2.5-1.6,4-1.6h8.5
		c5,0,7.5,6,4,9.6l-29.3,29.3c-1,1.1-1.6,2.5-1.6,3.9v32.6c0,3.1-2.5,5.6-5.6,5.6h-5C677.6,146.1,675.1,143.6,675.1,140.5z"/>
	
		<linearGradient id="SVGID_00000092443498223880479200000008528652820615860136_" gradientUnits="userSpaceOnUse" x1="728.09" y1="182.455" x2="801.04" y2="182.455" gradientTransform="matrix(1 0 0 -1 0 288)">
		<stop  offset="1.276741e-03" style="stop-color:#606060"/>
		<stop  offset="0.2563" style="stop-color:#434343"/>
		<stop  offset="0.5241" style="stop-color:#2C2C2C"/>
		<stop  offset="0.7777" style="stop-color:#1F1F1F"/>
		<stop  offset="1" style="stop-color:#1A1A1A"/>
	</linearGradient>
	<path style="fill:url(#SVGID_00000092443498223880479200000008528652820615860136_);" d="M728.1,141.6v-9.9c0-1.2,0.5-2.3,1.3-3.1
		l39.8-39.8c2.8-2.8,0.8-7.6-3.1-7.6h-33.5c-2.5,0-4.4-2-4.4-4.4v-7.3c0-2.4,2-4.4,4.4-4.4h64.1c2.5,0,4.4,2,4.4,4.4v9.9
		c0,1.2-0.5,2.3-1.3,3.1L760,122.3c-2.8,2.8-0.8,7.6,3.1,7.6h33.5c2.5,0,4.4,2,4.4,4.4v7.4c0,2.4-2,4.4-4.4,4.4h-64.1
		C730.1,146.1,728.1,144.1,728.1,141.6z"/>
	
		<linearGradient id="SVGID_00000054245538543173000410000003042137633614891672_" gradientUnits="userSpaceOnUse" x1="807.89" y1="182.455" x2="888.9401" y2="182.455" gradientTransform="matrix(1 0 0 -1 0 288)">
		<stop  offset="1.276741e-03" style="stop-color:#606060"/>
		<stop  offset="0.2563" style="stop-color:#434343"/>
		<stop  offset="0.5241" style="stop-color:#2C2C2C"/>
		<stop  offset="0.7777" style="stop-color:#1F1F1F"/>
		<stop  offset="1" style="stop-color:#1A1A1A"/>
	</linearGradient>
	<path style="fill:url(#SVGID_00000054245538543173000410000003042137633614891672_);" d="M807.9,140.2V70.9c0-3.3,2.6-5.9,5.9-5.9
		H883c3.3,0,5.9,2.6,5.9,5.9v4.4c0,3.3-2.6,5.9-5.9,5.9h-53c-3.3,0-5.9,2.6-5.9,5.9v4.4c0,3.3,2.6,5.9,5.9,5.9h36.8
		c3.3,0,5.9,2.6,5.9,5.9v4.4c0,3.3-2.6,5.9-5.9,5.9H830c-3.3,0-5.9,2.6-5.9,5.9v4.4c0,3.3,2.6,5.9,5.9,5.9h53c3.3,0,5.9,2.6,5.9,5.9
		v4.4c0,3.3-2.6,5.9-5.9,5.9h-69.2C810.5,146.1,807.9,143.4,807.9,140.2z"/>
	
		<linearGradient id="SVGID_00000114052987833909558760000015831171605431320982_" gradientUnits="userSpaceOnUse" x1="895.8" y1="182.46" x2="986.2834" y2="182.46" gradientTransform="matrix(1 0 0 -1 0 288)">
		<stop  offset="1.276741e-03" style="stop-color:#606060"/>
		<stop  offset="0.2563" style="stop-color:#434343"/>
		<stop  offset="0.5241" style="stop-color:#2C2C2C"/>
		<stop  offset="0.7777" style="stop-color:#1F1F1F"/>
		<stop  offset="1" style="stop-color:#1A1A1A"/>
	</linearGradient>
	<path style="fill:url(#SVGID_00000114052987833909558760000015831171605431320982_);" d="M895.8,141.3V69.8c0-2.7,2.2-4.8,4.8-4.8
		h60c4.5,0,8.3,1.6,11.4,4.8c3.2,3.2,4.8,7,4.8,11.4v16.2c0,4.6-1.6,8.4-4.8,11.5c-1.3,1.3-2.8,2.3-4.3,3.1
		c-2.8,1.4-3.6,5.1-1.3,7.3l18.5,18.5c3,3,0.9,8.2-3.4,8.2h-10.7c-1.3,0-2.5-0.5-3.4-1.4l-39-39c-3-3-0.9-8.2,3.4-8.2h20.8
		c2.2,0,4.1-0.8,5.7-2.3c1.6-1.6,2.4-3.6,2.4-5.8c0-2.2-0.8-4.1-2.4-5.7c-1.6-1.6-3.5-2.4-5.7-2.4h-35.7c-2.7,0-4.8,2.2-4.8,4.8
		v55.2c0,2.6-2.2,4.8-4.8,4.8h-6.6C898,146.1,895.8,143.9,895.8,141.3z"/>
	
		<linearGradient id="SVGID_00000155135155521010663180000004047525682713334178_" gradientUnits="userSpaceOnUse" x1="486.5643" y1="179.8" x2="562.3197" y2="179.8" gradientTransform="matrix(1 0 0 -1 0 288)">
		<stop  offset="1.276741e-03" style="stop-color:#606060"/>
		<stop  offset="0.2563" style="stop-color:#434343"/>
		<stop  offset="0.5241" style="stop-color:#2C2C2C"/>
		<stop  offset="0.7777" style="stop-color:#1F1F1F"/>
		<stop  offset="1" style="stop-color:#1A1A1A"/>
	</linearGradient>
	<path style="fill:url(#SVGID_00000155135155521010663180000004047525682713334178_);" d="M487,139.9l33.6-67.2
		c1.6-3.2,6.1-3.2,7.7,0l33.6,67.2c1.4,2.9-0.7,6.2-3.8,6.2h-6.6c-1.6,0-3.1-0.9-3.8-2.4l-1.7-3.4c-0.7-1.4-2.2-2.4-3.8-2.4h-35.2
		c-1.6,0-3.1,0.9-3.8,2.4l-1.7,3.4c-0.7,1.4-2.2,2.4-3.8,2.4h-6.6C487.7,146.1,485.6,142.7,487,139.9z M533.5,115.6l-5.2-10.4
		c-1.6-3.2-6.1-3.2-7.7,0l-5.2,10.4c-1.4,2.8,0.7,6.2,3.8,6.2h10.4C532.8,121.8,534.9,118.4,533.5,115.6z"/>
	
		<linearGradient id="SVGID_00000172428370344449473480000003975098156966813829_" gradientUnits="userSpaceOnUse" x1="316.4743" y1="179.8" x2="392.2297" y2="179.8" gradientTransform="matrix(1 0 0 -1 0 288)">
		<stop  offset="1.276741e-03" style="stop-color:#606060"/>
		<stop  offset="0.2563" style="stop-color:#434343"/>
		<stop  offset="0.5241" style="stop-color:#2C2C2C"/>
		<stop  offset="0.7777" style="stop-color:#1F1F1F"/>
		<stop  offset="1" style="stop-color:#1A1A1A"/>
	</linearGradient>
	<path style="fill:url(#SVGID_00000172428370344449473480000003975098156966813829_);" d="M316.9,139.9l33.6-67.2
		c1.6-3.2,6.1-3.2,7.7,0l33.6,67.2c1.4,2.9-0.6,6.2-3.8,6.2h-6.6c-1.6,0-3.1-0.9-3.8-2.4l-1.7-3.4c-0.7-1.4-2.2-2.4-3.8-2.4h-35.2
		c-1.6,0-3.1,0.9-3.8,2.4l-1.7,3.4c-0.7,1.4-2.2,2.4-3.8,2.4h-6.6C317.6,146.1,315.5,142.7,316.9,139.9z M363.4,115.6l-5.2-10.4
		c-1.6-3.2-6.1-3.2-7.7,0l-5.2,10.4c-1.4,2.8,0.6,6.2,3.8,6.2h10.4C362.8,121.8,364.8,118.4,363.4,115.6z"/>
</g>
<g class="st22">
	<path class="st23" d="M412.6,212.1l2.4-5.3c3,2.4,7.7,4.1,12.2,4.1c5.8,0,8.2-2.1,8.2-4.8c0-8-22-2.8-22-16.5
		c0-6,4.8-11.1,14.9-11.1c4.4,0,9.1,1.2,12.3,3.3l-2.2,5.3c-3.3-2-7-2.9-10.2-2.9c-5.7,0-8,2.2-8,5c0,7.9,22,2.8,22,16.4
		c0,5.9-4.8,11-15,11C421.5,216.5,415.7,214.7,412.6,212.1z"/>
	<path class="st23" d="M500.9,204h-22.2c0.8,4.1,4.2,6.8,9.2,6.8c3.2,0,5.7-1,7.7-3.1l3.5,4.1c-2.5,3-6.5,4.6-11.4,4.6
		c-9.5,0-15.6-6.1-15.6-14.5c0-8.4,6.2-14.5,14.6-14.5c8.3,0,14.3,5.8,14.3,14.6C501,202.5,500.9,203.3,500.9,204z M478.6,199.6h16
		c-0.5-4.1-3.7-6.9-8-6.9C482.4,192.7,479.3,195.4,478.6,199.6z"/>
	<path class="st23" d="M549.7,187.4v6.3c-0.6-0.1-1.1-0.2-1.5-0.2c-5,0-8.2,3-8.2,8.7V216h-6.6v-28.3h6.3v4.1
		C541.5,188.9,545,187.4,549.7,187.4z"/>
	<path class="st23" d="M608.8,187.7L596.7,216h-6.8l-12.1-28.3h6.9l8.8,21l9.1-21H608.8z"/>
	<path class="st23" d="M638.1,179.1c0-2.2,1.8-4,4.2-4c2.4,0,4.2,1.6,4.2,3.8c0,2.3-1.7,4.1-4.2,4.1
		C639.9,183,638.1,181.3,638.1,179.1z M639,187.7h6.6V216H639V187.7z"/>
	<path class="st23" d="M677.9,201.8c0-8.5,6.4-14.5,15.3-14.5c5.5,0,9.9,2.3,12.1,6.6l-5.1,3c-1.7-2.7-4.2-3.9-7-3.9
		c-4.9,0-8.6,3.4-8.6,8.8c0,5.5,3.7,8.8,8.6,8.8c2.8,0,5.3-1.2,7-3.9l5.1,3c-2.2,4.2-6.6,6.6-12.1,6.6
		C684.3,216.3,677.9,210.3,677.9,201.8z"/>
	<path class="st23" d="M763.1,204h-22.2c0.8,4.1,4.2,6.8,9.2,6.8c3.2,0,5.7-1,7.7-3.1l3.5,4.1c-2.5,3-6.5,4.6-11.4,4.6
		c-9.5,0-15.6-6.1-15.6-14.5c0-8.4,6.2-14.5,14.6-14.5c8.3,0,14.3,5.8,14.3,14.6C763.2,202.5,763.1,203.3,763.1,204z M740.8,199.6
		h16c-0.5-4.1-3.7-6.9-8-6.9C744.6,192.7,741.5,195.4,740.8,199.6z"/>
	<path class="st23" d="M792.3,213.2l2.5-5c2.5,1.6,6.3,2.8,9.8,2.8c4.2,0,5.9-1.2,5.9-3.1c0-5.4-17.5-0.3-17.5-11.6
		c0-5.3,4.8-8.8,12.4-8.8c3.8,0,8,0.9,10.6,2.4l-2.5,5c-2.7-1.6-5.4-2.1-8.1-2.1c-4,0-5.9,1.3-5.9,3.2c0,5.7,17.5,0.6,17.5,11.7
		c0,5.3-4.9,8.7-12.8,8.7C799.6,216.3,794.8,215,792.3,213.2z"/>
</g>
</svg>
