<svg width="1395" height="878" xmlns="http://www.w3.org/2000/svg" xmlns:xlink="http://www.w3.org/1999/xlink" overflow="hidden"><defs><clipPath id="clip0"><rect x="1503" y="798" width="1395" height="878"/></clipPath></defs><g clip-path="url(#clip0)" transform="translate(-1503 -798)"><path d="M1637.44 1070C1693.3 1107.94 1749.16 1146.22 1805.36 1183.81 1814.67 1190.02 1817.08 1194.5 1809.5 1203.81 1799.5 1216.92 1790.19 1230.71 1781.57 1244.85 1776.05 1254.16 1771.57 1253.47 1763.3 1247.95 1711.23 1212.43 1658.82 1177.26 1606.76 1142.08 1602.62 1139.32 1598.14 1136.56 1594 1134.15 1608.83 1112.76 1622.96 1091.38 1637.44 1070Z" fill="#808080" fill-rule="evenodd"/><path d="M2626 932.976C2588.23 988.672 2550.11 1044.37 2512.69 1100.41 2506.51 1109.35 2502.04 1112.1 2492.77 1104.88 2480.07 1094.91 2466.68 1085.97 2452.94 1078.06 2442.64 1071.87 2443.33 1066.72 2449.51 1057.78 2484.87 1006.21 2519.55 954.635 2554.24 902.721 2556.98 898.595 2559.73 894.126 2562.13 890 2583.42 904.44 2604.71 918.88 2626 932.976Z" fill="#808080" fill-rule="evenodd"/><path d="M1517.74 1317.41C1519.79 1313.62 1522.88 1315.34 1525.96 1315.69 1591.07 1329.47 1656.18 1343.26 1721.29 1356.7 1728.83 1358.08 1729.86 1361.52 1728.48 1368.07 1724.37 1387.02 1720.26 1405.63 1716.83 1424.58 1715.46 1431.82 1712.38 1432.86 1705.87 1431.48 1641.45 1417.69 1576.68 1403.91 1511.91 1390.47 1507.12 1389.43 1502.66 1389.09 1504.37 1382.2 1508.83 1361.52 1512.94 1340.85 1517.4 1320.51 1517.05 1319.48 1517.4 1318.79 1517.74 1317.41Z" fill="#003452" fill-rule="evenodd"/><path d="M1894.44 1107.62C1893.07 1105.57 1891.69 1103.51 1889.98 1101.11 1854.28 1047.95 1818.92 994.798 1782.88 941.986 1777.39 933.755 1777.04 929.64 1786.31 924.153 1801.42 915.579 1815.49 905.634 1829.56 895.346 1836.43 890.545 1839.52 890.545 1844.32 897.747 1880.02 951.931 1916.07 1005.77 1952.45 1059.27 1957.26 1066.13 1957.94 1069.9 1949.7 1074.7 1934.26 1084.3 1919.5 1094.94 1904.05 1104.88 1901.99 1107.28 1899.25 1111.05 1894.44 1107.62Z" fill="#808080" fill-rule="evenodd"/><path d="M1713.25 1553C1713.94 1556.09 1714.62 1558.83 1715.31 1561.23 1719.09 1579.74 1722.18 1598.25 1726.3 1616.42 1728.01 1623.62 1726.98 1626.71 1718.74 1628.08 1654.54 1640.08 1589.99 1652.76 1525.79 1665.44 1518.58 1666.81 1515.15 1666.13 1514.12 1657.9 1511.03 1639.39 1507.59 1620.88 1503.47 1602.71 1502.1 1595.85 1503.47 1593.11 1510.68 1591.74 1575.57 1579.4 1640.12 1567.06 1705.01 1554.37 1707.07 1553.69 1709.82 1553.34 1713.25 1553Z" fill="#003452" fill-rule="evenodd"/><path d="M2673.34 1366.2C2676.44 1365.51 2678.85 1364.48 2681.6 1364.13 2745.91 1351.74 2810.22 1339.01 2874.52 1326.62 2881.4 1325.24 2885.53 1325.58 2886.9 1333.84 2890 1352.43 2893.78 1371.02 2897.57 1389.26 2898.94 1396.14 2897.22 1399.24 2890 1400.62 2824.66 1413.01 2759.32 1425.74 2694.32 1438.48 2690.19 1439.16 2686.07 1440.2 2685.04 1434 2681.25 1413.35 2677.13 1392.36 2673 1371.7 2673.34 1369.98 2673 1368.26 2673.34 1366.2Z" fill="#808080" fill-rule="evenodd"/><path d="M2102.32 798C2103 801.094 2104.03 803.501 2104.71 806.252 2117.35 871.583 2129.99 936.57 2142.63 1001.9 2143.99 1008.78 2141.6 1010.5 2135.45 1011.53 2116.67 1014.97 2097.88 1018.41 2079.09 1022.53 2071.24 1024.25 2069.87 1021.16 2068.85 1014.62 2056.55 950.324 2044.25 886.025 2031.61 821.725 2030.25 814.848 2030.59 811.066 2038.79 809.691 2057.23 806.94 2075.33 802.814 2093.78 799.031 2096.17 798.344 2098.9 798.344 2102.32 798Z" fill="#808080" fill-rule="evenodd"/><path d="M2376.69 812.253C2381.47 814.322 2379.77 817.77 2379.43 820.874 2365.77 886.386 2352.11 951.899 2338.8 1017.76 2337.09 1025.69 2333.68 1025.69 2327.53 1024.31 2309.44 1020.17 2291 1016.38 2272.91 1012.93 2266.08 1011.55 2264.03 1009.14 2265.4 1001.9 2279.06 936.728 2292.71 871.56 2306.03 806.392 2306.71 802.599 2307.05 798.117 2312.17 799.151 2333.68 802.944 2355.53 807.771 2376.69 812.253Z" fill="#808080" fill-rule="evenodd"/><path d="M2589.1 1190.28C2591.17 1188.57 2593.92 1186.85 2596.68 1185.14 2649.45 1150.17 2702.22 1115.19 2754.3 1079.88 2762.58 1074.39 2766.72 1074.05 2772.24 1083.3 2780.86 1097.71 2790.52 1111.76 2800.52 1125.48 2806.38 1133.36 2804.66 1137.48 2796.72 1142.28 2743.27 1177.6 2689.81 1212.91 2636.35 1248.57 2629.1 1253.37 2624.97 1253.71 2620.14 1245.83 2610.82 1230.74 2600.13 1216.34 2590.48 1201.6 2588.41 1198.17 2584.61 1194.74 2589.1 1190.28Z" fill="#808080" fill-rule="evenodd"/><path d="M2685.37 1563.81C2687.78 1558.62 2691.91 1560.01 2696.05 1560.7 2760.79 1574.19 2825.19 1587.68 2889.93 1601.17 2896.82 1602.56 2897.85 1606.02 2896.47 1611.9 2892.34 1631.27 2887.86 1650.64 2884.42 1670.01 2883.04 1678.32 2878.56 1675.89 2873.4 1674.86 2821.4 1663.79 2769.4 1653.06 2717.4 1642.34 2705 1639.57 2692.26 1636.8 2679.86 1634.38 2674.7 1633.35 2670.91 1632.31 2672.29 1625.73 2676.42 1606.02 2680.55 1586.3 2685.03 1566.23 2684.68 1565.54 2685.03 1564.5 2685.37 1563.81Z" fill="#808080" fill-rule="evenodd"/></g></svg>