<?xml version="1.0" encoding="utf-8"?>
<!-- Generator: Adobe Illustrator 27.5.0, SVG Export Plug-In . SVG Version: 6.00 Build 0)  -->
<svg version="1.1" id="Capa_1" xmlns="http://www.w3.org/2000/svg" xmlns:xlink="http://www.w3.org/1999/xlink" x="0px" y="0px"
	 viewBox="0 0 698 407" style="enable-background:new 0 0 698 407;" xml:space="preserve">
<style type="text/css">
	.st0{fill:#53AEDF;}
	.st1{fill:#FFFFFF;}
	.st2{fill:#FFB30E;}
	.st3{fill:#983107;}
</style>
<g id="Layer_1">
</g>
<g>
	<g>
		<rect x="0.2" class="st0" width="697.6" height="407"/>
	</g>
	<g>
		<rect x="0.2" y="125.5" class="st1" width="697.6" height="155.5"/>
	</g>
	<g>
		<g>
			<g>
				<path class="st2" d="M347.7,140.2c-1,1.3-1.7,34.5-1.7,38.2h3.9c0,0,0.3-35.5-1-38.3C348.4,138.9,347.7,140.2,347.7,140.2z"/>
				<path class="st3" d="M350.2,178.6h-4.3v-0.2c0-1.9,0.6-36.9,1.7-38.3c0,0,0.3-0.7,0.9-0.7c0.3,0,0.5,0.2,0.7,0.6
					c1.3,2.8,1,36.9,1,38.4L350.2,178.6z M346.3,178.1h3.4c0-3,0.2-35.4-1-38c-0.1-0.2-0.2-0.4-0.3-0.4c-0.2,0-0.4,0.3-0.5,0.5
					C347,141.6,346.3,173,346.3,178.1z"/>
			</g>
			<g>
				<polygon class="st3" points="347.8,178.3 348,155.4 348.3,178.2 				"/>
			</g>
		</g>
		<g>
			<g>
				<path class="st2" d="M323.9,145.5c-0.4,1.6,12,32.3,13.4,35.6l3.5-1.6c0,0-13.6-32.6-15.8-34.6C324,144,323.9,145.5,323.9,145.5
					z"/>
				<path class="st3" d="M337.2,181.4l-0.1-0.2c-0.8-1.8-13.8-34-13.4-35.8c0-0.4,0.2-1.1,0.7-1.1c0.2,0,0.4,0.1,0.7,0.3
					c2.3,2,15.3,33.4,15.9,34.7l0.1,0.2L337.2,181.4z M324.4,144.9c-0.2,0-0.3,0.5-0.3,0.7c-0.4,1.6,11.3,30.6,13.3,35.3l3.1-1.4
					c-1.2-2.8-13.6-32.5-15.7-34.3C324.6,144.9,324.5,144.9,324.4,144.9z"/>
			</g>
			<g>
				<polygon class="st3" points="338.8,180.4 330,159.3 339.3,180.1 				"/>
			</g>
		</g>
		<g>
			<g>
				<path class="st2" d="M371.8,145.5c-1.4,0.8-15,30.9-16.4,34.2l3.5,1.6c0,0,14.1-32.3,14.1-35.4
					C372.9,144.6,371.8,145.5,371.8,145.5z"/>
				<path class="st3" d="M359.1,181.7l-3.9-1.8l0.1-0.2c0.8-1.8,14.9-33.5,16.5-34.3c0,0,0.4-0.4,0.8-0.4c0.2,0,0.6,0.1,0.7,0.9
					c0.1,3.1-13.5,34.2-14.1,35.5L359.1,181.7z M355.7,179.6l3.1,1.4c1.2-2.8,14-32.3,14-35.1c0-0.3-0.1-0.5-0.2-0.5
					c-0.2,0-0.5,0.2-0.6,0.3C370.6,146.5,357.7,175,355.7,179.6z"/>
			</g>
			<g>
				<polygon class="st3" points="357,180.4 366.1,159.5 357.5,180.5 				"/>
			</g>
		</g>
		<g>
			<g>
				<path class="st2" d="M390.8,158.6c-1.6,0.2-24.8,23.2-27.3,25.7l2.7,2.8c0,0,24.5-24.8,25.5-27.7
					C392.2,158.1,390.8,158.6,390.8,158.6z"/>
				<path class="st3" d="M366.2,187.4l-3-3.1l0.2-0.2c1.3-1.4,25.6-25.6,27.4-25.8c0,0,0.3-0.1,0.5-0.1c0.4,0,0.5,0.1,0.6,0.3
					c0.1,0.2,0.2,0.5,0,0.9c-1,2.9-24.6,26.8-25.6,27.8L366.2,187.4z M363.8,184.3l2.4,2.5c2.1-2.1,24.4-24.8,25.3-27.5
					c0.1-0.2,0.1-0.4,0-0.5c0-0.1-0.2-0.1-0.3-0.1c-0.2,0-0.4,0.1-0.4,0.1C389.4,159,367.3,180.7,363.8,184.3z"/>
			</g>
			<g>
				<polygon class="st3" points="364.8,185.4 380.6,169.4 365.2,185.8 				"/>
			</g>
		</g>
		<g>
			<g>
				<path class="st2" d="M361.4,141.8c-1,0-4.3,1.9-4.4,6.1c-0.1,4.2-0.8,8.8-1.2,10.2c-0.4,1.5-3.1,8-3.9,11.7
					c-0.8,3.6-0.8,8.6-0.8,8.6l3.7,1c0,0,0.8-5.8,0.7-7.6c-0.1-1.8,2.4-9.8,3.1-11.4c0.9-2.3,0.8-6.1,0.6-8.6
					c-0.2-2.5-1.4-4.9,0.2-6.5C360.8,143.7,362.9,141.9,361.4,141.8z"/>
				<path class="st3" d="M355,179.7l-4.1-1.1l0-0.2c0-0.1,0-5.1,0.8-8.7c0.6-2.6,2-6.6,3-9.2c0.4-1.1,0.7-2,0.9-2.4
					c0.4-1.4,1.1-6,1.2-10.2c0.1-4.1,3.3-6.3,4.6-6.3c0.4,0,0.6,0.1,0.7,0.4c0.2,0.5-0.5,1.3-1.8,2.7c-0.3,0.3-0.5,0.5-0.8,0.8
					c-1,1.1-0.7,2.6-0.4,4.3c0.1,0.7,0.3,1.3,0.3,2c0.1,1.3,0.4,5.9-0.6,8.7c-0.7,1.7-3.1,9.6-3,11.3c0.1,1.8-0.7,7.4-0.7,7.7
					L355,179.7z M351.4,178.3l3.3,0.9c0.1-1.1,0.7-5.8,0.7-7.3c-0.1-1.9,2.5-9.9,3.1-11.5c1-2.7,0.7-7.2,0.6-8.5
					c-0.1-0.7-0.2-1.3-0.3-2c-0.3-1.8-0.7-3.4,0.5-4.7c0.2-0.3,0.5-0.5,0.8-0.8c0.7-0.7,1.8-1.9,1.7-2.2c0,0-0.1-0.1-0.3-0.1l0,0
					c-1,0-4.1,1.8-4.2,5.9c-0.1,4.2-0.8,8.8-1.2,10.3c-0.1,0.4-0.5,1.3-0.9,2.5c-1,2.6-2.4,6.6-3,9.2
					C351.5,173,351.4,177.3,351.4,178.3z"/>
			</g>
			<g>
				<path class="st3" d="M352.9,178.7c0,0-0.2-3.4,0.1-5.2c0,0,0.2-5.8,3.2-11.4c1.1-2.3,1.3-3.7,1.5-4.5c0,0-0.3,2.5-1.3,4.7
					c-1,2.3-2.7,5-3.1,13.3l0.1,3.3L352.9,178.7z"/>
			</g>
		</g>
		<g>
			<g>
				<path class="st2" d="M383.1,152.1c-0.9-0.4-4.7,0-6.4,3.8c-1.7,3.8-4,7.8-5,8.9c-1,1.2-5.8,6.1-7.9,9.2c-2.1,3-4,7.6-4,7.6
					l3,2.4c0,0,2.9-5.1,3.5-6.7c0.6-1.7,5.9-8,7.1-9.3c1.7-1.8,3.1-5.3,3.8-7.7c0.7-2.4,0.6-5,2.6-5.9
					C381.9,153.5,384.5,152.7,383.1,152.1z"/>
				<path class="st3" d="M363,184.3l-3.3-2.6l0.1-0.2c0,0,1.9-4.7,4-7.7c1.5-2.2,4.4-5.3,6.2-7.3c0.8-0.9,1.4-1.5,1.7-1.9
					c0.9-1.1,3.3-5.1,4.9-8.9c1.4-3.2,4.3-4.1,5.8-4.1c0.4,0,0.7,0.1,0.9,0.2c0.3,0.2,0.5,0.4,0.5,0.6c0,0.6-1,1-2.7,1.7
					c-0.3,0.1-0.7,0.3-1,0.4c-1.4,0.6-1.7,2.1-2,3.8c-0.1,0.7-0.3,1.3-0.5,2c-0.4,1.3-1.8,5.6-3.8,7.8c-1.3,1.3-6.5,7.6-7.1,9.2
					c-0.6,1.7-3.4,6.6-3.6,6.8L363,184.3z M360.2,181.6l2.7,2.1c0.6-1,2.8-5,3.4-6.5c0.7-1.8,6-8.1,7.2-9.4c1.9-2,3.3-6.3,3.7-7.6
					c0.2-0.6,0.3-1.3,0.5-1.9c0.4-1.8,0.7-3.4,2.3-4.1c0.3-0.1,0.7-0.3,1-0.4c0.9-0.4,2.4-1,2.4-1.3c0,0,0-0.1-0.2-0.2
					c-0.8-0.4-4.4,0-6.1,3.7c-1.7,3.8-4,7.8-5,9c-0.3,0.4-0.9,1-1.7,1.9c-1.9,2-4.7,5.1-6.2,7.3
					C362.2,176.8,360.5,180.7,360.2,181.6z"/>
			</g>
			<g>
				<path class="st3" d="M361.4,182.5c0,0,1.1-3.2,2-4.8c0,0,2.3-5.2,7.2-9.2c1.9-1.7,2.6-2.9,3-3.5c0,0-1.2,2.2-2.9,3.9
					c-1.8,1.7-4.4,3.5-7.8,11l-1.2,3.1L361.4,182.5z"/>
			</g>
		</g>
		<g>
			<g>
				<path class="st2" d="M404.3,179.9c-1.5-0.5-31.9,10.5-35.1,11.8l1.4,3.7c0,0,32.2-12.2,34.3-14.4
					C405.8,180,404.3,179.9,404.3,179.9z"/>
				<path class="st3" d="M370.4,195.7l-1.5-4.2l0.2-0.1c2.8-1.1,32.2-11.8,35-11.8c0.1,0,0.2,0,0.2,0c0,0,0.8,0.1,1,0.6
					c0.1,0.3,0,0.6-0.3,0.9c-2.1,2.2-33.1,13.9-34.4,14.4L370.4,195.7z M369.5,191.8l1.2,3.3c2.7-1,32.1-12.2,34-14.2
					c0.2-0.2,0.3-0.4,0.2-0.5c-0.1-0.2-0.4-0.3-0.6-0.3c-0.1,0-0.1,0-0.1,0C401.6,180.1,374,190.1,369.5,191.8z"/>
			</g>
			<g>
				<polygon class="st3" points="369.9,193.3 390.7,185.4 370.2,193.8 				"/>
			</g>
		</g>
		<g>
			<g>
				<path class="st2" d="M408.8,203c-1.3-1.1-33.4-1.7-36.9-1.7l0,4c0,0,34.3,0.3,37-1C410.1,203.6,408.8,203,408.8,203z"/>
				<path class="st3" d="M381.2,205.5L381.2,205.5c-5.3,0-9.2,0-9.3,0l-0.2,0l0-4.4h0.2c1.9,0,35.6,0.6,37,1.8c0,0,0.7,0.4,0.7,0.9
					c0,0.3-0.2,0.6-0.6,0.8C407.3,205.3,392.9,205.5,381.2,205.5z M372.1,205c0.9,0,4.5,0,9,0c16.5,0,26.4-0.4,27.7-1
					c0.2-0.1,0.4-0.3,0.4-0.4c0-0.2-0.3-0.4-0.5-0.5c-1.2-1-31.6-1.7-36.6-1.7L372.1,205z"/>
			</g>
			<g>
				<polygon class="st3" points="372,203 394.1,203.2 372.1,203.6 				"/>
			</g>
		</g>
		<g>
			<g>
				<path class="st2" d="M399.5,169.8c-0.7-0.8-4.3-1.8-7.3,1c-3,2.8-6.6,5.6-7.9,6.3c-1.3,0.7-7.6,3.3-10.8,5.3
					c-3,1.9-6.5,5.4-6.5,5.4l1.9,3.4c0,0,4.6-3.5,5.8-4.8c1.2-1.3,8.5-5,10-5.7c2.2-1,4.8-3.7,6.4-5.6c1.6-1.9,2.4-4.4,4.6-4.4
					C397.8,170.6,400.5,170.9,399.5,169.8z"/>
				<path class="st3" d="M368.9,191.5l-2.1-3.7l0.1-0.1c0,0,3.5-3.5,6.5-5.5c2.2-1.4,6-3.1,8.5-4.3c1.1-0.5,1.9-0.9,2.3-1.1
					c1.3-0.7,4.9-3.4,7.9-6.2c1.7-1.6,3.4-1.9,4.6-1.9c1.4,0,2.6,0.5,3,0.9c0.2,0.3,0.3,0.5,0.2,0.8c-0.2,0.4-1,0.5-2.2,0.5
					c-0.3,0-0.6,0-0.9,0c-0.3,0-0.6,0-0.9,0l-0.2,0c-1.5,0-2.3,1.3-3.3,2.7c-0.4,0.5-0.7,1.1-1.2,1.6c-0.8,1-3.8,4.5-6.4,5.6
					c-1.7,0.7-8.8,4.4-10,5.7c-1.2,1.3-5.6,4.7-5.8,4.8L368.9,191.5z M367.3,187.8l1.7,3c0.9-0.7,4.5-3.5,5.6-4.6
					c1.3-1.4,8.5-5.1,10.1-5.8c2.5-1.1,5.4-4.5,6.3-5.5c0.4-0.5,0.8-1.1,1.1-1.6c1-1.5,1.9-2.9,3.6-2.9l0.2,0c0.3,0,0.6,0,0.9,0
					c0.3,0,0.6,0,0.9,0c1.5,0,1.8-0.2,1.8-0.2c0,0,0-0.1-0.2-0.3c-0.3-0.3-1.3-0.8-2.7-0.8c-1.1,0-2.8,0.3-4.3,1.8
					c-3,2.9-6.7,5.6-8,6.3c-0.4,0.2-1.2,0.6-2.3,1.1c-2.5,1.1-6.3,2.8-8.4,4.2C371,184.2,368,187.2,367.3,187.8z"/>
			</g>
			<g>
				<path class="st3" d="M368.1,189.2c0,0,2.2-2.5,3.6-3.6c0,0,4.1-3.9,10.1-5.6c2.4-0.8,3.5-1.6,4.1-2c0,0-1.9,1.5-4.2,2.4
					c-2.3,0.9-5.3,1.5-11.4,7.1l-2.2,2.4L368.1,189.2z"/>
			</g>
		</g>
		<g>
			<g>
				<path class="st2" d="M407.6,193c-0.3-1-3.3-3.5-7.1-2c-3.8,1.4-8.2,2.5-9.6,2.6c-1.5,0.1-8.3,0-11.9,0.6c-3.5,0.6-8,2.4-8,2.4
					l0.5,3.9c0,0,5.5-1.4,7.1-2.1c1.6-0.7,9.7-1.2,11.4-1.2c2.4,0,5.8-1.4,7.9-2.6c2.2-1.1,3.9-3.1,5.9-2.2
					C405.7,193.1,408.1,194.4,407.6,193z"/>
				<path class="st3" d="M371.2,200.6l-0.5-4.3l0.2-0.1c0,0,4.6-1.8,8.1-2.4c2.6-0.4,6.7-0.5,9.4-0.5c1.2,0,2.1,0,2.5-0.1
					c1.4-0.1,5.8-1.1,9.6-2.6c0.8-0.3,1.6-0.4,2.4-0.4c2.7,0,4.7,1.7,5,2.6c0.1,0.3,0.1,0.5,0,0.7c-0.1,0.1-0.3,0.2-0.5,0.2l0,0
					c-0.6,0-1.6-0.5-2.6-0.9c-0.3-0.2-0.7-0.3-1-0.5c-0.3-0.1-0.6-0.2-0.9-0.2c-1,0-2,0.7-3.1,1.4c-0.5,0.4-1.1,0.7-1.7,1
					c-1.2,0.6-5.2,2.6-8,2.6c-1.8,0-9.8,0.5-11.3,1.2c-1.6,0.7-6.9,2.1-7.2,2.1L371.2,200.6z M371.2,196.6l0.4,3.4
					c1.1-0.3,5.5-1.4,6.9-2c1.7-0.7,9.8-1.2,11.5-1.2c2.8,0,6.7-1.9,7.9-2.5c0.6-0.3,1.1-0.7,1.7-1c1.1-0.7,2.2-1.4,3.3-1.4
					c0.4,0,0.8,0.1,1.1,0.2c0.3,0.1,0.7,0.3,1,0.5c1,0.4,2,0.9,2.5,0.9c0.1,0,0.1,0,0.1,0c0,0,0-0.1,0-0.3c-0.2-0.6-1.9-2.3-4.6-2.3
					c-0.7,0-1.5,0.1-2.2,0.4c-3.8,1.4-8.2,2.5-9.7,2.6c-0.4,0-1.4,0-2.5,0.1c-2.7,0-6.8,0.1-9.4,0.5
					C375.9,194.8,372,196.3,371.2,196.6z"/>
			</g>
			<g>
				<path class="st3" d="M371.4,198.2c0,0,3-1.4,4.7-1.8c0,0,5.2-1.9,11.4-1.1c2.5,0.3,3.8-0.1,4.6-0.2c0,0-2.3,0.6-4.7,0.5
					c-2.4-0.1-5.5-0.8-13.1,1.9l-3,1.3L371.4,198.2z"/>
			</g>
		</g>
		<g>
			<g>
				<path class="st2" d="M404.2,227.9c-0.7-1.5-30-15.3-33.2-16.7l-1.5,3.7c0,0,31.4,14.4,34.4,14.3
					C405.1,229,404.2,227.9,404.2,227.9z"/>
				<path class="st3" d="M403.8,229.3c-3.2,0-33.1-13.7-34.4-14.3l-0.2-0.1l1.7-4.1l0.2,0.1c1.7,0.8,32.5,15.2,33.3,16.8
					c0,0,0.5,0.6,0.3,1.1C404.6,229.1,404.3,229.3,403.8,229.3L403.8,229.3z M369.7,214.7c2.7,1.2,31.1,14.2,34,14.2v0.2l0-0.2
					c0.3,0,0.4-0.1,0.5-0.2c0.1-0.2-0.1-0.5-0.3-0.7c-0.8-1.4-28.4-14.5-32.9-16.6L369.7,214.7z"/>
			</g>
			<g>
				<polygon class="st3" points="370.4,212.8 390.6,222.1 370.2,213.4 				"/>
			</g>
		</g>
		<g>
			<g>
				<path class="st2" d="M407.5,217c0-1.1-1.9-4.4-5.9-4.5c-4-0.1-8.5-0.7-9.9-1.2c-1.4-0.4-7.7-3.1-11.3-3.9
					c-3.5-0.8-8.3-0.8-8.3-0.8l-0.9,3.8c0,0,5.6,0.8,7.4,0.7c1.7-0.1,9.5,2.5,11.1,3.1c2.2,0.9,5.9,0.8,8.3,0.6
					c2.4-0.2,4.7-1.4,6.3,0.1C405.7,216.3,407.4,218.5,407.5,217z"/>
				<path class="st3" d="M407.2,217.7L407.2,217.7c-0.5,0-1.2-0.7-2.4-1.9c-0.3-0.3-0.5-0.5-0.8-0.8c-0.5-0.5-1.1-0.7-1.9-0.7
					c-0.7,0-1.4,0.2-2.2,0.3c-0.6,0.1-1.3,0.3-1.9,0.3c-0.7,0.1-1.9,0.2-3.2,0.2c-1.5,0-3.7-0.1-5.2-0.7c-1.6-0.6-9.1-3.1-10.9-3.1
					l-0.1,0c-1.8,0.1-7.2-0.7-7.4-0.7l-0.2,0l1-4.2h0.2c0.5,0,5.1,0,8.4,0.8c2.5,0.6,6.4,2,9,3c1.1,0.4,1.9,0.7,2.4,0.9
					c1.4,0.4,5.8,1.1,9.8,1.2c1.9,0,3.6,0.8,4.8,2.1c0.9,1,1.3,2.1,1.3,2.6C407.7,217.6,407.4,217.7,407.2,217.7z M402,213.8
					c0.9,0,1.6,0.3,2.2,0.9c0.3,0.3,0.5,0.5,0.8,0.8c0.8,0.8,1.7,1.8,2.1,1.8c0.1,0,0.1-0.3,0.1-0.3c0-0.4-0.3-1.3-1.2-2.3
					c-0.8-0.9-2.3-2-4.5-2c-4.1-0.1-8.5-0.7-10-1.2c-0.4-0.1-1.3-0.5-2.4-0.9c-2.5-1-6.4-2.5-8.9-3c-3.1-0.7-7.3-0.7-8.1-0.7
					l-0.8,3.4c1.1,0.1,5.6,0.7,7.1,0.7l0.1,0c1.9,0,9.5,2.5,11.1,3.1c1.2,0.5,2.9,0.7,5,0.7c1.3,0,2.4-0.1,3.2-0.2
					c0.6-0.1,1.3-0.2,1.9-0.3C400.5,214,401.3,213.8,402,213.8z"/>
			</g>
			<g>
				<path class="st3" d="M371.8,208.4c0,0,3.3-0.2,5,0c0,0,5.6,0.1,11.1,3.2c2.2,1.2,3.6,1.3,4.3,1.5c0,0-2.4-0.3-4.6-1.3
					c-2.2-1-4.8-2.8-12.9-3.1l-3.2,0.1L371.8,208.4z"/>
			</g>
		</g>
		<g>
			<g>
				<path class="st2" d="M391.1,247.3c-0.2-1.7-22.8-25.3-25.3-27.9l-2.7,2.9c0,0,24.4,25,27.2,26
					C391.6,248.7,391.1,247.3,391.1,247.3z"/>
				<path class="st3" d="M390.7,248.6c-0.1,0-0.3,0-0.5-0.1c-2.8-1-26.3-25-27.3-26.1l-0.2-0.2l3-3.2l0.2,0.2
					c1.3,1.4,25.1,26.2,25.3,28c0,0,0.2,0.7,0,1.1C391.2,248.5,391.1,248.6,390.7,248.6z M363.5,222.3c2.1,2.1,24.3,24.9,27,25.8
					c0.1,0,0.2,0.1,0.3,0.1c0.1,0,0.2-0.1,0.2-0.1c0.1-0.1,0-0.5,0-0.7c-0.2-1.6-21.5-24-25-27.6L363.5,222.3z"/>
			</g>
			<g>
				<polygon class="st3" points="364.7,220.8 380.5,236.9 364.4,221.2 				"/>
			</g>
		</g>
		<g>
			<g>
				<path class="st2" d="M371,261.8c0.5-1.6-11.2-32.6-12.5-35.9l-3.6,1.5c0,0,12.8,32.9,15,35C370.9,263.3,371,261.8,371,261.8z"/>
				<path class="st3" d="M370.5,263L370.5,263c-0.2,0-0.4-0.1-0.7-0.3c-2.2-2.1-14.5-33.8-15.1-35.1l-0.1-0.2l4-1.7l0.1,0.2
					c0.7,1.8,13,34.3,12.5,36.1C371.2,262.3,371,263,370.5,263z M355.2,227.5c1.1,2.8,12.8,32.8,14.9,34.7c0.2,0.2,0.3,0.2,0.4,0.2
					c0.2,0,0.3-0.5,0.3-0.7c0.4-1.5-10.5-30.9-12.4-35.6L355.2,227.5z"/>
			</g>
			<g>
				<polygon class="st3" points="357,226.6 365.2,247.9 356.5,226.9 				"/>
			</g>
		</g>
		<g>
			<g>
				<path class="st2" d="M380.7,256.4c0.7-0.7,1.6-4.6-1.2-7.5c-2.8-3-5.6-6.6-6.3-8c-0.7-1.3-3.4-7.8-5.5-11
					c-2-3.1-5.5-6.6-5.5-6.6l-3.2,2.1c0,0,3.5,4.6,4.8,5.8c1.3,1.2,5.1,8.6,5.8,10.2c1,2.3,3.7,4.8,5.6,6.4c1.9,1.6,4.3,2.3,4.4,4.6
					C379.8,254.6,379.7,257.5,380.7,256.4z"/>
				<path class="st3" d="M380.3,256.8L380.3,256.8c-0.7,0-0.7-1.4-0.8-3.2c0-0.4,0-0.8,0-1.1c-0.1-1.5-1.3-2.4-2.7-3.3
					c-0.5-0.4-1.1-0.7-1.6-1.2c-1-0.8-4.4-3.8-5.6-6.5c-0.8-1.7-4.5-8.9-5.8-10.1c-1.3-1.2-4.7-5.7-4.9-5.8l-0.2-0.2l3.6-2.3
					l0.1,0.1c0,0,3.5,3.5,5.5,6.6c1.4,2.2,3.2,6.1,4.4,8.6c0.5,1.1,0.9,1.9,1.1,2.3c0.7,1.3,3.4,5,6.3,7.9c1.3,1.4,2,3.2,2,5
					c0,1.3-0.4,2.4-0.8,2.8C380.7,256.8,380.5,256.8,380.3,256.8z M359.4,225.5c0.7,0.9,3.5,4.5,4.6,5.6c1.4,1.3,5.2,8.7,5.9,10.3
					c1.2,2.6,4.5,5.5,5.5,6.3c0.5,0.4,1.1,0.8,1.6,1.1c1.5,1,2.8,1.9,2.9,3.7c0,0.4,0,0.8,0,1.1c0,0.8,0,2.8,0.3,2.8
					c0,0,0.1,0,0.2-0.2c0.3-0.3,0.7-1.2,0.7-2.5c0-1.2-0.3-3-1.9-4.7c-2.9-3-5.6-6.7-6.3-8c-0.2-0.4-0.6-1.3-1.1-2.4
					c-1.2-2.5-2.9-6.4-4.3-8.6c-1.7-2.7-4.7-5.8-5.3-6.4L359.4,225.5z"/>
			</g>
			<g>
				<path class="st3" d="M360.9,224.5c0,0,2.5,2.2,3.6,3.6c0,0,3.9,4.1,5.8,10.3c0.8,2.5,1.7,3.6,2.1,4.2c0,0-1.5-1.9-2.4-4.2
					c-0.9-2.3-1.6-5.5-7.2-11.5l-2.4-2.2L360.9,224.5z"/>
			</g>
		</g>
		<g>
			<g>
				<path class="st2" d="M397.9,239.5c0.4-1-0.1-4.9-3.8-6.6c-3.7-1.7-7.5-4.1-8.7-5.1c-1.1-1-5.9-6-8.9-8.1
					c-2.9-2.1-7.4-4.1-7.4-4.1l-2.3,3.1c0,0,4.9,3,6.5,3.6c1.6,0.6,7.8,6.1,9,7.3c1.7,1.7,5.1,3.1,7.4,3.9c2.3,0.7,4.9,0.6,5.7,2.6
					C396.4,238.2,397.2,240.9,397.9,239.5z"/>
				<path class="st3" d="M397.5,240.1c-0.6,0-1-1-1.7-2.8c-0.1-0.4-0.3-0.7-0.4-1c-0.6-1.4-2-1.7-3.7-2c-0.6-0.1-1.3-0.3-1.9-0.5
					c-1.2-0.4-5.5-1.9-7.5-3.9c-1.3-1.3-7.4-6.6-8.9-7.2c-1.6-0.6-6.4-3.5-6.6-3.6l-0.2-0.1l2.5-3.5l0.2,0.1c0,0,4.5,2,7.4,4.1
					c2.1,1.5,5.1,4.5,7.1,6.4c0.8,0.8,1.5,1.5,1.8,1.8c1.1,1,4.9,3.3,8.6,5c1.7,0.8,3,2.2,3.6,3.9c0.5,1.3,0.5,2.4,0.2,3
					C397.9,239.9,397.7,240.1,397.5,240.1z M367.2,218.7c1,0.6,4.9,2.9,6.3,3.5c1.7,0.7,7.9,6.1,9.1,7.3c2,2,6.1,3.4,7.4,3.8
					c0.6,0.2,1.3,0.3,1.9,0.5c1.7,0.4,3.3,0.7,4,2.3c0.1,0.3,0.3,0.7,0.4,1.1c0.4,0.9,1,2.5,1.3,2.5c0,0,0.1,0,0.2-0.3
					c0.1-0.3,0.2-1.3-0.3-2.6c-0.4-1.1-1.3-2.7-3.4-3.7c-3.7-1.7-7.6-4.1-8.7-5.1c-0.3-0.3-1-1-1.9-1.8c-2-1.9-5-4.8-7.1-6.4
					c-2.6-1.9-6.4-3.6-7.2-4L367.2,218.7z"/>
			</g>
			<g>
				<path class="st3" d="M368.2,217.3c0,0,3.1,1.1,4.6,2c0,0,5.1,2.4,9,7.4c1.6,2,2.8,2.7,3.4,3.1c0,0-2.1-1.2-3.8-3
					c-1.6-1.8-3.4-4.5-10.7-8l-3-1.2L368.2,217.3z"/>
			</g>
		</g>
		<g>
			<g>
				<path class="st2" d="M348.8,266.1c1-1.3,1.5-34.6,1.5-38.2l-3.9,0c0,0-0.1,35.5,1.2,38.3C348.2,267.5,348.8,266.1,348.8,266.1z"
					/>
				<path class="st3" d="M348.1,267C348.1,267,348.1,267,348.1,267c-0.3,0-0.5-0.2-0.7-0.6c-1.3-2.8-1.2-36.9-1.2-38.4l0-0.2l4.3,0
					v0.2c0,1.9-0.4,36.9-1.5,38.3C349,266.3,348.6,267,348.1,267z M346.6,228.2c0,3,0,35.4,1.2,38c0.1,0.2,0.2,0.4,0.4,0.4
					c0.2,0,0.4-0.3,0.5-0.5c0.9-1.3,1.4-32.7,1.4-37.8L346.6,228.2z"/>
			</g>
			<g>
				<polygon class="st3" points="348.6,228.1 348.5,251 348,228.2 				"/>
			</g>
		</g>
		<g>
			<g>
				<path class="st2" d="M335,265c1,0,4.3-2,4.3-6.2c0.1-4.2,0.7-8.8,1.1-10.2c0.4-1.5,3-8,3.7-11.7c0.7-3.6,0.7-8.6,0.7-8.6
					l-3.7-0.9c0,0-0.7,5.8-0.6,7.6c0.1,1.8-2.3,9.8-2.9,11.5c-0.8,2.3-0.7,6.1-0.5,8.6c0.3,2.5,1.4,4.8-0.1,6.5
					C335.6,263.2,333.6,265,335,265z"/>
				<path class="st3" d="M335.1,265.3L335.1,265.3L335.1,265.3c-0.4,0-0.6-0.1-0.7-0.4c-0.2-0.5,0.5-1.3,1.8-2.7
					c0.3-0.3,0.5-0.5,0.8-0.8c1-1.1,0.7-2.6,0.4-4.3c-0.1-0.7-0.3-1.3-0.3-2c-0.1-1.3-0.5-5.9,0.5-8.7c0.6-1.7,3-9.6,2.9-11.4
					c-0.1-1.8,0.6-7.4,0.6-7.7l0-0.3l4.1,1l0,0.2c0,0.1,0,5.1-0.7,8.7c-0.5,2.6-1.9,6.6-2.9,9.3c-0.4,1.1-0.7,2-0.8,2.4
					c-0.4,1.4-1,6-1.1,10.2C339.6,263.3,336.1,265.3,335.1,265.3z M341.4,227.7c-0.1,1.1-0.7,5.8-0.6,7.3c0.1,1.9-2.3,9.9-2.9,11.5
					c-1,2.7-0.6,7.2-0.5,8.5c0.1,0.7,0.2,1.3,0.3,2c0.4,1.8,0.7,3.4-0.5,4.7c-0.2,0.3-0.5,0.5-0.8,0.8c-0.7,0.7-1.8,1.9-1.7,2.2
					c0,0,0.1,0.1,0.3,0.1l0,0.2v-0.2c0.8,0,4.1-1.8,4.1-5.9c0.1-4.2,0.7-8.8,1.1-10.3c0.1-0.4,0.4-1.3,0.8-2.5
					c0.9-2.6,2.3-6.6,2.9-9.2c0.6-3.2,0.7-7.5,0.7-8.4L341.4,227.7z"/>
			</g>
			<g>
				<path class="st3" d="M343.1,228.1c0,0,0.2,3.4,0,5.2c0,0-0.1,5.8-3,11.5c-1.1,2.3-1.3,3.7-1.4,4.5c0,0,0.2-2.5,1.2-4.8
					c1-2.3,2.7-5,2.9-13.4l-0.2-3.3L343.1,228.1z"/>
			</g>
		</g>
		<g>
			<g>
				<path class="st2" d="M358.3,265.7c1-0.4,3.3-3.5,1.9-7.4c-1.4-3.9-2.5-8.4-2.6-9.9c-0.1-1.5-0.1-8.6-0.7-12.3
					c-0.6-3.6-2.4-8.3-2.4-8.3l-3.7,0.5c0,0,1.4,5.7,2.1,7.3c0.7,1.7,1.3,10,1.3,11.8c0,2.5,1.5,6,2.6,8.2c1.1,2.2,3,4,2.2,6.1
					C358.1,263.7,356.9,266.2,358.3,265.7z"/>
				<path class="st3" d="M357.9,266L357.9,266c-0.2,0-0.4-0.1-0.4-0.2c-0.3-0.5,0.1-1.5,0.8-3.1c0.1-0.4,0.3-0.7,0.4-1
					c0.6-1.4-0.2-2.7-1.2-4.2c-0.4-0.6-0.7-1.1-1-1.7c-0.6-1.2-2.5-5.3-2.6-8.3c0-1.9-0.6-10.1-1.3-11.7c-0.7-1.7-2.1-7.2-2.1-7.4
					l-0.1-0.2l4.2-0.6l0.1,0.2c0,0,1.8,4.7,2.4,8.3c0.4,2.6,0.5,6.9,0.6,9.7c0,1.2,0,2.1,0.1,2.6c0.1,1.5,1.2,6,2.6,9.9
					c0.7,1.8,0.6,3.7-0.2,5.4c-0.5,1.2-1.3,2.1-1.9,2.2C358.2,265.9,358.1,266,357.9,266z M351,228.5c0.3,1.1,1.4,5.6,2,7.1
					c0.7,1.7,1.3,10.1,1.3,11.9c0,2.9,2,6.9,2.5,8.1c0.3,0.6,0.7,1.2,1,1.7c1,1.5,1.9,2.9,1.2,4.6c-0.1,0.3-0.3,0.7-0.4,1.1
					c-0.4,1-1,2.4-0.8,2.7c0,0,0,0,0.1,0l0,0c0,0,0.1,0,0.2-0.1c0.3-0.1,1.1-0.8,1.6-2c0.5-1.1,0.9-2.9,0.1-5.1
					c-1.4-4-2.5-8.5-2.6-10c0-0.5-0.1-1.4-0.1-2.6c-0.1-2.8-0.1-7.1-0.6-9.7c-0.5-3.2-2-7.2-2.3-8.1L351,228.5z"/>
			</g>
			<g>
				<path class="st3" d="M352.8,228.2c0,0,1.4,3.1,1.8,4.8c0,0,1.9,5.4,1.2,11.8c-0.2,2.6,0.1,4,0.3,4.7c0,0-0.6-2.4-0.6-4.9
					c0.1-2.5,0.7-5.7-2-13.5l-1.3-3L352.8,228.2z"/>
			</g>
		</g>
		<g>
			<g>
				<path class="st2" d="M324.4,261.7c1.4-0.8,14.7-31.1,16-34.4l-3.5-1.6c0,0-13.8,32.5-13.7,35.6
					C323.3,262.7,324.4,261.7,324.4,261.7z"/>
				<path class="st3" d="M323.7,262.3L323.7,262.3c-0.2,0-0.6-0.1-0.7-0.9c-0.1-3.1,13.1-34.4,13.7-35.7l0.1-0.2l3.9,1.8l-0.1,0.2
					c-0.7,1.8-14.6,33.6-16.1,34.5C324.5,261.9,324.1,262.3,323.7,262.3z M337,226c-1.2,2.8-13.7,32.4-13.6,35.3
					c0,0.3,0.1,0.5,0.3,0.5c0.2,0,0.5-0.2,0.6-0.3c1.4-0.8,13.9-29.4,15.9-34.1L337,226z"/>
			</g>
			<g>
				<polygon class="st3" points="338.8,226.7 329.9,247.7 338.3,226.5 				"/>
			</g>
		</g>
		<g>
			<g>
				<path class="st2" d="M305.9,248.3c1.6-0.2,24.9-23.1,27.4-25.6l-2.7-2.8c0,0-24.6,24.8-25.6,27.7
					C304.5,248.8,305.9,248.3,305.9,248.3z"/>
				<path class="st3" d="M305.3,248.7L305.3,248.7c-0.4,0-0.5-0.1-0.6-0.3c-0.2-0.2-0.2-0.5,0-0.9c1-2.9,24.7-26.8,25.7-27.8
					l0.2-0.2l3,3.2l-0.2,0.2c-1.3,1.4-25.7,25.5-27.5,25.7C305.9,248.6,305.6,248.7,305.3,248.7z M330.5,220.2
					c-2.1,2.1-24.4,24.7-25.4,27.4c-0.1,0.2-0.1,0.4,0,0.5c0,0.1,0.2,0.1,0.3,0.1h0c0.2,0,0.4-0.1,0.4-0.1
					c1.5-0.2,23.6-21.9,27.1-25.4L330.5,220.2z"/>
			</g>
			<g>
				<polygon class="st3" points="332,221.5 316.1,237.5 331.5,221.1 				"/>
			</g>
		</g>
		<g>
			<g>
				<path class="st2" d="M312.8,255c0.9,0.5,4.7,0,6.4-3.8c1.7-3.8,4.1-7.7,5-8.9c1-1.2,5.9-6,8-9.1c2.1-3,4-7.6,4-7.6l-3-2.4
					c0,0-2.9,5-3.6,6.7c-0.6,1.7-6,8-7.2,9.2c-1.7,1.8-3.1,5.3-3.9,7.6c-0.8,2.4-0.6,5-2.7,5.9C314.1,253.5,311.5,254.3,312.8,255z"
					/>
				<path class="st3" d="M313.6,255.4L313.6,255.4c-0.4,0-0.7-0.1-1-0.2c-0.3-0.2-0.5-0.4-0.5-0.6c0-0.6,1-1,2.7-1.7
					c0.3-0.1,0.7-0.3,1-0.4c1.4-0.6,1.7-2.1,2-3.8c0.1-0.7,0.3-1.3,0.5-2c0.4-1.3,1.9-5.6,3.9-7.7c1.3-1.3,6.5-7.5,7.2-9.1
					c0.6-1.7,3.5-6.5,3.6-6.7l0.1-0.2l3.3,2.7l-0.1,0.2c0,0-2,4.7-4.1,7.6c-1.5,2.2-4.4,5.2-6.3,7.3c-0.8,0.9-1.4,1.5-1.7,1.9
					c-0.9,1.1-3.3,5-5,8.8C318,254.5,315.1,255.4,313.6,255.4z M333.4,223.6c-0.6,1-2.9,5-3.5,6.5c-0.7,1.7-6.1,8-7.2,9.3
					c-1.9,2-3.4,6.3-3.8,7.5c-0.2,0.6-0.3,1.3-0.5,1.9c-0.4,1.8-0.7,3.4-2.3,4.1c-0.3,0.1-0.7,0.3-1,0.4c-0.9,0.4-2.4,1-2.4,1.3
					c0,0,0,0.1,0.2,0.2c0.2,0.1,0.4,0.1,0.8,0.1c1.4,0,4-0.8,5.4-3.8c1.7-3.8,4.1-7.8,5.1-8.9c0.3-0.4,0.9-1,1.7-1.9
					c1.9-2,4.8-5.1,6.3-7.2c1.8-2.6,3.6-6.5,4-7.4L333.4,223.6z"/>
			</g>
			<g>
				<path class="st3" d="M334.8,224.7c0,0-1.2,3.2-2.1,4.7c0,0-2.4,5.2-7.3,9.2c-1.9,1.7-2.6,2.9-3.1,3.5c0,0,1.2-2.2,3-3.8
					c1.8-1.7,4.4-3.4,7.9-11l1.2-3.1L334.8,224.7z"/>
			</g>
		</g>
		<g>
			<g>
				<path class="st2" d="M296.4,237.7c0.7,0.8,4.4,1.8,7.3-1.1c2.9-2.9,6.5-5.7,7.8-6.4c1.3-0.7,7.6-3.4,10.7-5.5
					c3-2,6.4-5.6,6.4-5.6l-2-3.3c0,0-4.5,3.6-5.7,4.9c-1.2,1.3-8.4,5.2-9.9,5.9c-2.2,1-4.7,3.7-6.3,5.7c-1.5,1.9-2.3,4.4-4.5,4.5
					C298.2,236.8,295.4,236.5,296.4,237.7z"/>
				<path class="st3" d="M299.2,238.7L299.2,238.7c-1.4,0-2.5-0.4-2.9-0.9c-0.3-0.3-0.3-0.5-0.2-0.8c0.2-0.5,1.3-0.6,3.1-0.6
					c0.4,0,0.7,0,1.1,0c1.5,0,2.3-1.3,3.2-2.8c0.4-0.6,0.7-1.1,1.1-1.7c0.8-1,3.7-4.5,6.3-5.7c1.6-0.8,8.7-4.6,9.9-5.8
					c1.2-1.3,5.5-4.8,5.7-4.9l0.2-0.2l2.2,3.7l-0.1,0.1c0,0-3.5,3.6-6.5,5.6c-2.2,1.5-5.9,3.2-8.4,4.4c-1,0.5-1.9,0.9-2.3,1.1
					c-1.3,0.7-4.8,3.5-7.8,6.4C302.2,238.4,300.4,238.7,299.2,238.7z M326.6,216.1c-0.9,0.7-4.4,3.6-5.5,4.7c-1.2,1.4-8.5,5.2-10,6
					c-2.5,1.2-5.4,4.6-6.2,5.6c-0.4,0.5-0.8,1.1-1.1,1.6c-1,1.5-1.9,2.9-3.6,3c-0.4,0-0.7,0-1.1,0c-1,0-2.6,0-2.7,0.3
					c0,0,0,0.1,0.2,0.3c0.3,0.3,1.3,0.7,2.6,0.7l0,0c1.1,0,2.8-0.3,4.4-1.9c2.9-2.9,6.6-5.7,7.9-6.4c0.4-0.2,1.2-0.6,2.3-1.1
					c2.5-1.2,6.2-2.9,8.4-4.4c2.6-1.8,5.6-4.8,6.3-5.4L326.6,216.1z"/>
			</g>
			<g>
				<path class="st3" d="M327.5,217.6c0,0-2.2,2.5-3.6,3.7c0,0-4,4-10,5.8c-2.4,0.8-3.5,1.7-4.1,2.1c0,0,1.9-1.6,4.1-2.5
					c2.2-0.9,5.3-1.6,11.2-7.3l2.2-2.5L327.5,217.6z"/>
			</g>
		</g>
		<g>
			<g>
				<path class="st2" d="M292.5,228.8c1.6,0.4,31.2-12.5,34.4-13.9l-1.6-3.6c0,0-31.5,14.1-33.4,16.5
					C291,228.7,292.5,228.8,292.5,228.8z"/>
				<path class="st3" d="M292.6,229L292.6,229c-0.1,0-0.1,0-0.2,0c0,0-0.8,0-1-0.5c-0.1-0.3,0-0.6,0.3-1c2-2.4,32.2-16,33.5-16.6
					l0.2-0.1l1.7,4.1l-0.2,0.1C324.2,216.3,295.1,229,292.6,229z M325.2,211.5c-2.7,1.2-31.3,14.2-33.2,16.3
					c-0.2,0.2-0.2,0.4-0.2,0.5c0.1,0.2,0.4,0.2,0.7,0.2l0.1,0c2.3,0,29.5-11.8,34-13.8L325.2,211.5z"/>
			</g>
			<g>
				<polygon class="st3" points="326.1,213.3 305.8,222.4 325.8,212.8 				"/>
			</g>
		</g>
		<g>
			<g>
				<path class="st2" d="M286.6,204.5c1.3,1,33.4,1.3,36.9,1.2l-0.1-4c0,0-34.3,0.2-37,1.5C285.2,203.9,286.6,204.5,286.6,204.5z"/>
				<path class="st3" d="M322.1,205.9c-0.3,0-34.2-0.1-35.6-1.3c0,0-0.7-0.3-0.7-0.9c0-0.3,0.2-0.6,0.6-0.8
					c2.7-1.4,35.7-1.5,37.1-1.5l0.2,0l0.1,4.4l-0.2,0C323.2,205.9,322.7,205.9,322.1,205.9z M323.2,201.9c-2.9,0-34.2,0.2-36.7,1.5
					c-0.2,0.1-0.4,0.3-0.4,0.4c0,0.2,0.3,0.4,0.5,0.5c1.1,0.9,25.4,1.2,35.4,1.2c0.5,0,0.9,0,1.2,0L323.2,201.9z"/>
			</g>
			<g>
				<polygon class="st3" points="323.4,204 301.2,204.1 323.3,203.4 				"/>
			</g>
		</g>
		<g>
			<g>
				<path class="st2" d="M288.2,188.7c-0.1,1.1,1.8,4.5,5.8,4.7c4,0.2,8.4,1,9.9,1.5c1.4,0.5,7.6,3.4,11.2,4.3c3.5,0.9,8.3,1,8.3,1
					l1-3.8c0,0-5.6-0.9-7.4-0.9c-1.7,0-9.4-2.8-11-3.4c-2.2-1-5.9-1-8.3-0.8c-2.4,0.2-4.7,1.3-6.3-0.3
					C290,189.4,288.3,187.2,288.2,188.7z"/>
				<path class="st3" d="M323.6,200.4l-0.2,0c0,0-4.9-0.1-8.4-1c-2.5-0.6-6.3-2.3-8.9-3.3c-1.1-0.4-1.9-0.8-2.3-0.9
					c-1.4-0.5-5.8-1.3-9.8-1.5c-1.9-0.1-3.6-0.9-4.7-2.3c-0.9-1-1.3-2.1-1.3-2.7c0-0.6,0.4-0.7,0.5-0.7c0.5,0,1.2,0.8,2.4,2
					c0.3,0.3,0.5,0.6,0.8,0.8c0.5,0.5,1.2,0.8,2.1,0.8c0.6,0,1.3-0.1,2.1-0.3c0.6-0.1,1.3-0.2,2-0.3c0.7-0.1,1.5-0.1,2.3-0.1
					c1.8,0,4.4,0.2,6.1,0.9c1.6,0.7,9.2,3.4,10.9,3.4h0.1c1.8,0,7.1,0.9,7.4,0.9l0.2,0L323.6,200.4z M288.6,188.4
					c-0.1,0-0.1,0.2-0.1,0.3c0,0.4,0.3,1.3,1.1,2.3c0.8,0.9,2.2,2,4.4,2.1c4.1,0.2,8.5,1,9.9,1.5c0.4,0.1,1.3,0.5,2.4,1
					c2.5,1.1,6.3,2.7,8.8,3.3c3,0.8,7.2,1,8.1,1l0.9-3.3c-1.1-0.2-5.5-0.9-7-0.9l-0.1-0.2v0.2c-1.8,0-9.5-2.8-11-3.4
					c-1.7-0.7-4.2-0.9-6-0.9c-0.7,0-1.5,0-2.2,0.1c-0.6,0-1.3,0.2-1.9,0.3c-0.8,0.1-1.5,0.3-2.2,0.3c-1,0-1.8-0.3-2.4-0.9
					c-0.3-0.3-0.5-0.5-0.8-0.8C289.9,189.4,288.9,188.4,288.6,188.4z"/>
			</g>
			<g>
				<path class="st3" d="M323.7,198.4c0,0-3.3,0.1-5-0.2c0,0-5.6-0.3-11-3.5c-2.2-1.2-3.6-1.4-4.3-1.6c0,0,2.4,0.3,4.6,1.4
					c2.2,1.1,4.7,2.9,12.8,3.5l3.2,0L323.7,198.4z"/>
			</g>
		</g>
		<g>
			<g>
				<path class="st2" d="M291.3,179.6c0.8,1.5,30.1,15,33.3,16.4l1.5-3.7c0,0-31.5-14.1-34.5-14
					C290.3,178.4,291.3,179.6,291.3,179.6z"/>
				<path class="st3" d="M324.7,196.3l-0.2-0.1c-1.7-0.8-32.6-14.9-33.5-16.5c0,0-0.5-0.6-0.3-1.1c0.1-0.3,0.4-0.4,0.8-0.5l0.1,0
					c3.2,0,33.3,13.4,34.5,14l0.2,0.1L324.7,196.3z M291.6,178.6c-0.3,0-0.5,0.1-0.5,0.2c-0.1,0.2,0.1,0.5,0.3,0.7
					c0.8,1.4,28.5,14.3,33.1,16.3l1.3-3.3C323.1,191.2,294.7,178.6,291.6,178.6z"/>
			</g>
			<g>
				<polygon class="st3" points="325.2,194.3 304.9,185.3 325.3,193.8 				"/>
			</g>
		</g>
		<g>
			<g>
				<path class="st2" d="M287.7,214.2c0.3,1,3.3,3.4,7.1,2c3.8-1.4,8.2-2.5,9.6-2.6c1.5-0.1,8.3,0,11.9-0.6c3.5-0.6,8-2.4,8-2.4
					l-0.5-3.9c0,0-5.5,1.4-7.1,2.1c-1.6,0.7-9.7,1.2-11.4,1.3c-2.4,0-5.8,1.5-7.9,2.6c-2.2,1.1-3.9,3.1-5.9,2.2
					C289.6,214.1,287.2,212.7,287.7,214.2z"/>
				<path class="st3" d="M292.5,216.9c-2.7,0-4.7-1.7-5-2.6c-0.1-0.3-0.1-0.5,0-0.7c0.1-0.1,0.3-0.2,0.5-0.2c0.6,0,1.6,0.5,2.6,0.9
					c0.3,0.2,0.7,0.3,1,0.4c0.3,0.1,0.6,0.2,0.9,0.2c1,0,2-0.7,3.1-1.4c0.5-0.4,1.1-0.7,1.7-1c1.2-0.6,5.2-2.6,8-2.6
					c1.8,0,9.8-0.5,11.3-1.2c1.6-0.7,6.9-2.1,7.2-2.1l0.2-0.1l0.5,4.3l-0.2,0.1c0,0-4.6,1.8-8.1,2.4c-2.6,0.4-6.7,0.5-9.4,0.5
					c-1.2,0-2.1,0-2.5,0.1c-1.4,0.1-5.8,1.2-9.6,2.6C294.1,216.7,293.3,216.9,292.5,216.9z M288,213.8c-0.1,0-0.1,0-0.1,0
					c0,0,0,0.1,0,0.3c0.2,0.6,1.9,2.3,4.6,2.3c0.8,0,1.5-0.1,2.3-0.4c3.8-1.4,8.2-2.5,9.7-2.6c0.4,0,1.4,0,2.5-0.1
					c2.7,0,6.8-0.1,9.4-0.5c3.1-0.5,7-2,7.8-2.3l-0.4-3.4c-1.1,0.3-5.5,1.4-6.9,2c-1.7,0.7-9.8,1.3-11.5,1.3c-2.8,0-6.7,2-7.8,2.6
					c-0.6,0.3-1.1,0.7-1.7,1c-1.1,0.7-2.2,1.4-3.3,1.4c-0.4,0-0.7-0.1-1.1-0.2c-0.3-0.1-0.7-0.3-1-0.5
					C289.5,214.2,288.5,213.8,288,213.8z"/>
			</g>
			<g>
				<path class="st3" d="M324,208.8c0,0-3,1.4-4.7,1.9c0,0-5.2,2-11.4,1.1c-2.5-0.3-3.8,0.1-4.6,0.2c0,0,2.3-0.7,4.7-0.5
					c2.4,0.1,5.5,0.8,13.1-2l3-1.3L324,208.8z"/>
			</g>
		</g>
		<g>
			<g>
				<path class="st2" d="M338.2,141.2c-1,0.4-3.3,3.4-1.9,7.4c1.4,3.9,2.4,8.4,2.5,10c0.1,1.5,0,8.6,0.6,12.3
					c0.6,3.6,2.3,8.3,2.3,8.3l3.7-0.5c0,0-1.4-5.7-2.1-7.4c-0.7-1.7-1.2-10-1.2-11.8c0-2.5-1.4-6-2.5-8.2c-1.1-2.2-3-4-2.2-6.1
					C338.3,143.2,339.6,140.7,338.2,141.2z"/>
				<path class="st3" d="M341.6,179.4l-0.1-0.2c0,0-1.8-4.7-2.4-8.4c-0.4-2.6-0.5-6.9-0.5-9.7c0-1.2,0-2.1-0.1-2.6
					c-0.1-1.5-1.1-6-2.5-9.9c-0.6-1.8-0.6-3.7,0.2-5.4c0.6-1.2,1.4-2,1.9-2.2c0.5-0.2,0.7,0,0.8,0.1c0.3,0.5-0.1,1.5-0.8,3.1
					c-0.1,0.4-0.3,0.7-0.4,1c-0.6,1.4,0.2,2.7,1.1,4.2c0.3,0.6,0.7,1.1,1,1.8c0.6,1.2,2.5,5.4,2.5,8.3c0,1.9,0.5,10.1,1.2,11.7
					c0.7,1.7,2,7.2,2.1,7.4l0.1,0.2L341.6,179.4z M338.6,141.4c0,0-0.1,0-0.2,0.1c-0.3,0.1-1.1,0.8-1.6,2c-0.5,1.1-0.9,2.9-0.2,5.1
					c1.4,4,2.4,8.5,2.5,10c0,0.5,0,1.4,0.1,2.6c0,2.8,0.1,7.1,0.5,9.7c0.5,3.2,1.9,7.2,2.3,8.1l3.3-0.4c-0.3-1.1-1.4-5.7-2-7.1
					c-0.7-1.7-1.2-10.1-1.2-11.9c0-2.9-1.9-6.9-2.5-8.1c-0.3-0.6-0.6-1.2-1-1.7c-0.9-1.5-1.8-2.9-1.2-4.6c0.1-0.3,0.3-0.7,0.4-1.1
					C338.2,143.1,338.8,141.7,338.6,141.4C338.6,141.4,338.6,141.4,338.6,141.4z"/>
			</g>
			<g>
				<path class="st3" d="M343.4,178.7c0,0-1.4-3.1-1.8-4.9c0,0-1.9-5.4-1.1-11.8c0.2-2.6-0.1-4-0.2-4.7c0,0,0.6,2.4,0.5,4.9
					c-0.1,2.5-0.8,5.7,1.9,13.6l1.3,3.1L343.4,178.7z"/>
			</g>
		</g>
		<g>
			<g>
				<path class="st2" d="M305,158.6c0.1,1.7,22.1,26,24.5,28.6l2.8-2.8c0,0-23.7-25.7-26.5-26.8C304.6,157.1,305,158.6,305,158.6z"
					/>
				<path class="st3" d="M329.5,187.5l-0.2-0.2c-1.3-1.4-24.4-26.9-24.5-28.7c0,0-0.2-0.7,0.1-1.1c0.1-0.2,0.5-0.4,1-0.2
					c2.8,1.1,25.6,25.8,26.6,26.9l0.1,0.2L329.5,187.5z M305.4,157.7c-0.1,0-0.2,0.1-0.2,0.1c-0.1,0.2,0,0.5,0,0.7
					c0.2,1.6,20.9,24.7,24.3,28.3l2.5-2.5c-2-2.2-23.6-25.6-26.2-26.6C305.6,157.7,305.5,157.7,305.4,157.7z"/>
			</g>
			<g>
				<polygon class="st3" points="330.7,185.9 315.4,169.3 331,185.4 				"/>
			</g>
		</g>
		<g>
			<g>
				<path class="st2" d="M315.7,149.9c-0.8,0.7-1.8,4.5,0.9,7.6c2.7,3.1,5.3,6.8,6,8.2c0.7,1.4,3.2,7.9,5.1,11.1
					c1.9,3.1,5.2,6.8,5.2,6.8l3.3-1.9c0,0-3.4-4.7-4.6-6c-1.3-1.3-4.8-8.8-5.5-10.4c-0.9-2.3-3.5-5-5.3-6.6
					c-1.8-1.6-4.2-2.5-4.3-4.8C316.5,151.6,316.8,148.8,315.7,149.9z"/>
				<path class="st3" d="M332.9,183.8l-0.1-0.1c0,0-3.4-3.7-5.3-6.8c-1.4-2.3-3-6.2-4.1-8.8c-0.5-1.1-0.8-2-1-2.4
					c-0.7-1.3-3.3-5.1-6-8.2c-1.3-1.4-1.9-3.2-1.8-5.1c0.1-1.3,0.5-2.4,0.9-2.8c0.3-0.3,0.7-0.4,0.9-0.1c0.4,0.4,0.4,1.4,0.3,3.1
					c0,0.4,0,0.8,0,1.1c0,1.5,1.2,2.4,2.6,3.4c0.5,0.4,1.1,0.8,1.6,1.2c1,0.9,4.3,4,5.4,6.7c0.7,1.7,4.2,9.1,5.4,10.3
					c1.3,1.3,4.5,5.8,4.6,6l0.1,0.2L332.9,183.8z M316.1,149.9c0,0-0.1,0-0.2,0.1c-0.3,0.2-0.7,1.1-0.8,2.5c-0.1,1.2,0.2,3,1.7,4.8
					c2.8,3.1,5.4,6.9,6.1,8.3c0.2,0.4,0.6,1.3,1,2.4c1.1,2.6,2.7,6.5,4,8.7c1.6,2.7,4.5,5.9,5.1,6.6l2.9-1.7
					c-0.7-0.9-3.4-4.7-4.5-5.8c-1.3-1.3-4.9-8.9-5.5-10.5c-1.1-2.6-4.3-5.7-5.3-6.5c-0.5-0.4-1-0.8-1.6-1.2c-1.4-1-2.8-2-2.8-3.8
					c0-0.4,0-0.8,0-1.1C316.3,151.6,316.4,150.1,316.1,149.9C316.1,149.9,316.1,149.9,316.1,149.9z"/>
			</g>
			<g>
				<path class="st3" d="M334.4,182.4c0,0-2.4-2.3-3.5-3.8c0,0-3.8-4.3-5.4-10.5c-0.7-2.5-1.6-3.6-1.9-4.3c0,0,1.5,2,2.3,4.3
					c0.8,2.3,1.4,5.5,6.8,11.8l2.3,2.3L334.4,182.4z"/>
			</g>
		</g>
		<g>
			<g>
				<path class="st2" d="M298.5,166.7c-0.5,0.9-0.1,4.9,3.6,6.7c3.6,1.8,7.4,4.3,8.5,5.3c1.1,1,5.7,6.2,8.7,8.4
					c2.9,2.2,7.3,4.3,7.3,4.3l2.4-3.1c0,0-4.8-3.1-6.4-3.8c-1.6-0.7-7.6-6.3-8.8-7.6c-1.7-1.8-5-3.3-7.3-4.1
					c-2.3-0.8-4.8-0.7-5.7-2.8C299.9,168,299.2,165.3,298.5,166.7z"/>
				<path class="st3" d="M326.6,191.7l-0.2-0.1c0,0-4.5-2.1-7.3-4.3c-2.1-1.6-5-4.6-6.9-6.6c-0.8-0.8-1.5-1.5-1.8-1.8
					c-1.1-1-4.8-3.5-8.5-5.3c-1.7-0.8-2.9-2.3-3.5-4c-0.4-1.3-0.4-2.5-0.2-3c0.1-0.1,0.2-0.5,0.6-0.5c0.6,0,1,1,1.6,2.8
					c0.1,0.4,0.3,0.7,0.4,1.1c0.6,1.4,2,1.8,3.6,2.2c0.6,0.2,1.3,0.3,1.9,0.5c1.2,0.4,5.4,2,7.4,4.2c1.3,1.3,7.2,6.9,8.7,7.5
					c1.6,0.7,6.3,3.7,6.5,3.8l0.2,0.1L326.6,191.7z M298.9,166.5c0,0-0.1,0-0.2,0.2c-0.2,0.3-0.2,1.3,0.2,2.6
					c0.4,1.2,1.3,2.8,3.3,3.8c3.7,1.8,7.5,4.4,8.6,5.4c0.3,0.3,1,1,1.8,1.8c1.9,2,4.8,5,6.9,6.6c2.5,1.9,6.3,3.8,7.1,4.2l2.1-2.7
					c-0.9-0.6-4.8-3.1-6.2-3.7c-1.7-0.7-7.7-6.4-8.9-7.6c-1.9-2-6-3.6-7.2-4c-0.6-0.2-1.2-0.4-1.9-0.5c-1.7-0.4-3.3-0.8-3.9-2.4
					c-0.1-0.3-0.3-0.7-0.4-1.1C299.8,168.1,299.2,166.5,298.9,166.5z"/>
			</g>
			<g>
				<path class="st3" d="M327.5,189.8c0,0-3.1-1.2-4.6-2.2c0,0-5-2.5-8.8-7.7c-1.6-2-2.7-2.8-3.3-3.2c0,0,2.1,1.3,3.7,3.1
					c1.6,1.9,3.3,4.6,10.5,8.4l3,1.3L327.5,189.8z"/>
			</g>
		</g>
		<g>
			<path class="st2" d="M372,203.4c0,13.9-10.9,25.1-24.2,25.1c-13.4,0-24.2-11.2-24.2-25.1c0-13.9,10.9-25.1,24.2-25.1
				C361.2,178.3,372,189.5,372,203.4z"/>
			<path class="st3" d="M347.8,228.7c-13.5,0-24.5-11.4-24.5-25.3c0-14,11-25.3,24.5-25.3c13.5,0,24.5,11.4,24.5,25.3
				C372.2,217.3,361.3,228.7,347.8,228.7z M347.8,178.5c-13.3,0-24,11.1-24,24.9c0,13.7,10.8,24.9,24,24.9c13.2,0,24-11.1,24-24.9
				C371.8,189.6,361,178.5,347.8,178.5z"/>
		</g>
		<g>
			<path class="st3" d="M355.8,193.4c-3.2,0-5.6,2.7-6.3,5.5c-0.7,2.7,0.8,5.9,1.2,6.5c0.4,0.6,2.2,2.1,2.7,2.7
				c0.6,0.5-0.5,1.6-1,1.8c-0.5,0.3-1.9,0.1-2.2,0c-0.3-0.1-1.7,0.3-1.9,0.4c-0.1,0-1.6-0.5-1.9-0.4c-0.3,0.1-1.7,0.3-2.2,0
				c-0.5-0.3-1.6-1.3-1-1.8c0.6-0.5,2.3-2.1,2.7-2.7c0.4-0.6,1.9-3.8,1.2-6.5c-0.7-2.7-3.1-5.5-6.3-5.5c-3.2,0-6,2.5-6.9,4.1
				c0,0,3-3.4,6.9-3c4,0.4,5.8,2.7,6.1,4.6c0.3,1.9-0.2,5.5-1.6,6.6c-1.4,1.1-3.1,2.4-2.5,3.3c0.6,0.9,1.6,1.2,2.2,1.2
				c0.6,0,0.9-0.3,1.4-0.1c0.5,0.2,1,0.5,1.7,0.5v0c0,0,0,0,0,0s0,0,0,0v0c0.7,0,1.3-0.3,1.7-0.5c0.5-0.2,0.7,0.1,1.4,0.1
				c0.6,0,1.6-0.4,2.2-1.2c0.6-0.9-1.1-2.1-2.5-3.3c-1.4-1.1-1.9-4.7-1.6-6.6c0.3-1.9,2.1-4.2,6.1-4.6c4-0.4,6.9,3,6.9,3
				C361.8,195.9,358.9,193.4,355.8,193.4z"/>
		</g>
		<g>
			<path class="st3" d="M334.2,199.5c0,0,2.7-3.2,5.9-3.2c3.2,0,5.1,2.1,5.5,3.1c0,0-2.5-2.7-5.6-2.7
				C336.8,196.7,334.2,199.5,334.2,199.5z"/>
		</g>
		<g>
			<path class="st3" d="M336,199.1c0,0,0,4.1,4.6,4.1c4.6,0,4.6-3.2,4.6-3.2s-0.9,2.8-4.8,2.8C336.5,202.7,336.1,199.5,336,199.1z"
				/>
		</g>
		<g>
			<path class="st3" d="M341.4,200c0,0.8-0.6,1.4-1.3,1.4c-0.7,0-1.3-0.6-1.3-1.4c0-0.8,0.6-1.4,1.3-1.4
				C340.8,198.6,341.4,199.2,341.4,200z"/>
		</g>
		<g>
			<path class="st3" d="M335.5,199.2c0,0,5.8-3.6,9.7,0.3C345.3,199.5,340.6,196.5,335.5,199.2z"/>
		</g>
		<g>
			<path class="st3" d="M362.4,199.5c0,0-2.7-3.2-5.9-3.2c-3.2,0-5.1,2.1-5.5,3.1c0,0,2.5-2.7,5.6-2.7
				C359.9,196.7,362.4,199.5,362.4,199.5z"/>
		</g>
		<g>
			<path class="st3" d="M360.7,199.1c0,0,0,4.1-4.6,4.1c-4.6,0-4.6-3.2-4.6-3.2s0.9,2.8,4.8,2.8
				C360.1,202.7,360.6,199.5,360.7,199.1z"/>
		</g>
		<g>
			<path class="st3" d="M355.3,200c0,0.8,0.6,1.4,1.3,1.4c0.7,0,1.3-0.6,1.3-1.4c0-0.8-0.6-1.4-1.3-1.4
				C355.9,198.6,355.3,199.2,355.3,200z"/>
		</g>
		<g>
			<path class="st3" d="M361.1,199.2c0,0-5.8-3.6-9.7,0.3C351.4,199.5,356.1,196.5,361.1,199.2z"/>
		</g>
		<g>
			<path class="st3" d="M350.3,214.2c-0.6-0.2-2.1,0.2-2.1,0.2s-1.5-0.3-2.1-0.2c-0.6,0.2-3.1,0.4-3.1,0.4c0.4,0.3,2.7,0,3.1-0.1
				c0.4-0.1,2.1,0.5,2.1,0.5s1.7-0.6,2.1-0.5c0.4,0.1,2.8,0.4,3.1,0.1C353.4,214.6,350.8,214.4,350.3,214.2z"/>
		</g>
		<g>
			<path class="st3" d="M351.4,212.2c-0.3-0.4-1.7-1.2-2.3-0.5c-0.6,0.7-0.6,0.7-1,0.7c-0.4,0-0.4,0-1-0.7c-0.6-0.7-2,0.1-2.3,0.5
				c-0.3,0.4-2.6,2.1-2.6,2.1c0.8,0,3.4-2.2,4-2.5c0.6-0.3,1.9,1.3,1.9,1.4v0l0,0l0,0v0c0,0,1.3-1.6,1.9-1.4c0.6,0.3,3.2,2.5,4,2.5
				C354,214.4,351.7,212.7,351.4,212.2z"/>
		</g>
		<g>
			<path class="st3" d="M352.4,215.1c-0.3,0-1.3,0.8-1.7,1.2c-0.4,0.3-1.3,0.9-1.6,1.1c-0.2,0-0.3-0.1-0.5-0.1h-0.4h0h-0.4
				c-0.2,0-0.4,0-0.6,0.1c-0.3-0.2-1.2-0.7-1.6-1.1c-0.5-0.4-1.4-1.2-1.7-1.2c-0.3,0-1.4-0.2-1.5-0.3c0,0,0.5,0.6,1.2,0.6
				c0.7,0,1.1,0.6,1.4,1c0.2,0.3,1.4,1.1,2.2,1.2c-1.7,0.6-2.2,3-2.2,3c1.4-3.1,3.2-2.6,3.4-2.5v0c0,0,0,0,0,0c0,0,0,0,0,0v0
				c0.2-0.1,2-0.6,3.4,2.5c0,0-0.5-2.5-2.3-3c0.9-0.1,1.9-0.8,2.2-1.1c0.3-0.3,0.7-1,1.4-1c0.7,0,1.2-0.6,1.2-0.6
				C353.8,214.9,352.8,215.1,352.4,215.1z"/>
		</g>
	</g>
</g>
</svg>
