<?xml version="1.0" encoding="utf-8"?>
<!-- Generator: Adobe Illustrator 27.5.0, SVG Export Plug-In . SVG Version: 6.00 Build 0)  -->
<svg version="1.1" id="Capa_1" xmlns="http://www.w3.org/2000/svg" xmlns:xlink="http://www.w3.org/1999/xlink" x="0px" y="0px"
	 viewBox="0 0 698 407" style="enable-background:new 0 0 698 407;" xml:space="preserve">
<style type="text/css">
	.st0{clip-path:url(#SVGID_00000003104366476919882360000004068481105857757074_);fill:#FFFFFF;}
	.st1{clip-path:url(#SVGID_00000003104366476919882360000004068481105857757074_);fill:#2530A9;}
	.st2{clip-path:url(#SVGID_00000003104366476919882360000004068481105857757074_);fill:#C22623;}
</style>
<g id="Layer_1">
</g>
<g id="Chile_2_">
	<g>
		<g>
			<defs>
				<rect id="SVGID_1_" x="0.2" y="0" width="697.6" height="406.9"/>
			</defs>
			<clipPath id="SVGID_00000069370406294839777250000006072062430288465589_">
				<use xlink:href="#SVGID_1_"  style="overflow:visible;"/>
			</clipPath>
			
				<rect x="0.2" y="0" style="clip-path:url(#SVGID_00000069370406294839777250000006072062430288465589_);fill:#FFFFFF;" width="697.6" height="406.9"/>
			
				<rect x="0.2" y="0" style="clip-path:url(#SVGID_00000069370406294839777250000006072062430288465589_);fill:#2530A9;" width="203.5" height="406.9"/>
			
				<rect x="0.2" y="203.5" style="clip-path:url(#SVGID_00000069370406294839777250000006072062430288465589_);fill:#C22623;" width="697.6" height="203.5"/>
			<polygon style="clip-path:url(#SVGID_00000069370406294839777250000006072062430288465589_);fill:#FFFFFF;" points="101.9,50.9 
				86.2,99.3 110.4,107.1 			"/>
			<polygon style="clip-path:url(#SVGID_00000069370406294839777250000006072062430288465589_);fill:#FFFFFF;" points="101.9,50.9 
				117.7,99.3 93.5,107.1 			"/>
			<polygon style="clip-path:url(#SVGID_00000069370406294839777250000006072062430288465589_);fill:#FFFFFF;" points="150.3,86 
				99.4,86 99.4,111.5 			"/>
			<polygon style="clip-path:url(#SVGID_00000069370406294839777250000006072062430288465589_);fill:#FFFFFF;" points="150.3,86 
				109.1,116 94.2,95.4 			"/>
			<polygon style="clip-path:url(#SVGID_00000069370406294839777250000006072062430288465589_);fill:#FFFFFF;" points="53.5,86 
				94.7,116 109.7,95.4 			"/>
			<polygon style="clip-path:url(#SVGID_00000069370406294839777250000006072062430288465589_);fill:#FFFFFF;" points="53.5,86 
				104.4,86 104.4,111.5 			"/>
			<polygon style="clip-path:url(#SVGID_00000069370406294839777250000006072062430288465589_);fill:#FFFFFF;" points="131.8,142.9 
				116.1,94.5 91.9,102.4 			"/>
			<polygon style="clip-path:url(#SVGID_00000069370406294839777250000006072062430288465589_);fill:#FFFFFF;" points="131.8,142.9 
				90.7,113 105.6,92.4 			"/>
			<polygon style="clip-path:url(#SVGID_00000069370406294839777250000006072062430288465589_);fill:#FFFFFF;" points="72,142.9 
				113.2,113 98.2,92.4 			"/>
			<polygon style="clip-path:url(#SVGID_00000069370406294839777250000006072062430288465589_);fill:#FFFFFF;" points="72,142.9 
				87.7,94.5 111.9,102.4 			"/>
		</g>
	</g>
</g>
</svg>
